<?xml version="1.0" encoding="utf-8"?>
<!-- Generator: Adobe Illustrator 16.0.0, SVG Export Plug-In . SVG Version: 6.00 Build 0)  -->
<!DOCTYPE svg PUBLIC "-//W3C//DTD SVG 1.1//EN" "http://www.w3.org/Graphics/SVG/1.1/DTD/svg11.dtd">
<svg version="1.1" id="Layer_1" xmlns="http://www.w3.org/2000/svg" xmlns:xlink="http://www.w3.org/1999/xlink" x="0px" y="0px"
	 width="100px" height="100px" viewBox="0 0 100 100" enable-background="new 0 0 100 100" xml:space="preserve">
<g>
	<path fill-rule="evenodd" clip-rule="evenodd" fill="#F05A3B" d="M43.8,12.012c-0.007,1.443-0.014,2.861-0.021,4.278
		c-0.011,2.079-0.012,4.157-0.043,6.236c-0.006,0.422,0.059,0.569,0.544,0.598c6.554,0.397,12.793,1.921,18.396,5.474
		c5.886,3.731,9.393,9.064,10.441,15.975c0.616,4.056,0.534,8.081-0.73,12.018c-1.644,5.116-4.953,8.908-9.458,11.719
		c-2.292,1.43-4.748,2.496-7.357,3.204c-0.176,0.048-0.345,0.123-0.62,0.056c0.815-0.638,1.61-1.212,2.325-1.884
		c3.339-3.14,5.383-6.947,5.997-11.504c0.179-1.318,0.301-2.643,0.055-3.953c-0.37-1.973-1.561-3.416-3.153-4.551
		c-2.246-1.604-4.816-2.429-7.466-3.045c-2.724-0.635-5.494-0.93-8.281-1.086c-0.798-0.044-0.8-0.039-0.804,0.768
		c-0.016,3.241-0.032,6.48-0.049,9.721c-0.001,0.193-0.002,0.388-0.004,0.784c-1.119-1.15-2.1-2.174-3.097-3.182
		c-6.262-6.333-12.524-12.665-18.799-18.982c-0.358-0.36-0.361-0.534,0.003-0.895c7.21-7.113,14.404-14.242,21.604-21.364
		C43.418,12.261,43.522,12.074,43.8,12.012z"/>
</g>
<text transform="matrix(1 0 0 1 35.5 91)" fill="#F05A3B" font-family="'Futura-Medium'" font-size="12">BACK</text>
</svg>
