<?xml version="1.0" encoding="utf-8"?>
<!-- Generator: Adobe Illustrator 16.0.0, SVG Export Plug-In . SVG Version: 6.00 Build 0)  -->
<!DOCTYPE svg PUBLIC "-//W3C//DTD SVG 1.1//EN" "http://www.w3.org/Graphics/SVG/1.1/DTD/svg11.dtd">
<svg version="1.1" id="Layer_1" xmlns="http://www.w3.org/2000/svg" xmlns:xlink="http://www.w3.org/1999/xlink" x="0px" y="0px"
	 width="100px" height="100px" viewBox="0 0 100 100" enable-background="new 0 0 100 100" xml:space="preserve">
<g>
	<g id="_x31_0_25_">
		<g>
			<path fill="#666766" d="M50.092,18.868c-17.194-0.051-31.173,13.845-31.224,31.04c-0.051,17.194,13.845,31.173,31.039,31.224
				c17.192,0.051,31.174-13.846,31.225-31.04S67.285,18.919,50.092,18.868z M49.919,77.24c-15.045-0.045-27.204-12.277-27.16-27.32
				c0.045-15.046,12.276-27.204,27.321-27.16c15.044,0.045,27.204,12.275,27.16,27.321C77.195,65.124,64.963,77.284,49.919,77.24z
				 M58.873,33.418c-0.758-0.764-1.989-0.768-2.75-0.009L41.181,48.264c-0.468,0.465-0.614,1.104-0.509,1.709
				c-0.108,0.603,0.035,1.243,0.499,1.711l14.854,14.943c0.759,0.761,1.991,0.764,2.751,0.008c0.764-0.759,0.768-1.99,0.008-2.752
				L44.968,49.985l13.896-13.814C59.626,35.412,59.63,34.181,58.873,33.418z"/>
		</g>
	</g>
</g>
</svg>
