<?xml version="1.0" encoding="utf-8"?>
<!-- Generator: Adobe Illustrator 16.0.0, SVG Export Plug-In . SVG Version: 6.00 Build 0)  -->
<!DOCTYPE svg PUBLIC "-//W3C//DTD SVG 1.1//EN" "http://www.w3.org/Graphics/SVG/1.1/DTD/svg11.dtd">
<svg version="1.1" id="Layer_1" xmlns="http://www.w3.org/2000/svg" xmlns:xlink="http://www.w3.org/1999/xlink" x="0px" y="0px"
	 width="100px" height="100px" viewBox="0 0 100 100" enable-background="new 0 0 100 100" xml:space="preserve">
<g>
	<path fill-rule="evenodd" clip-rule="evenodd" fill="#FFFFFF" d="M58.811,66.328c-0.479-0.482-1.033-0.916-1.432-1.461
		c-1.216-1.666-2.311-1.615-4.109-0.508C33.146,76.74,7.504,64.914,3.679,41.576C0.904,24.649,12.03,8.311,28.942,4.478
		c16.82-3.813,34.158,6.564,38.717,23.191c2.354,8.593,1.338,16.81-2.872,24.632c-2.065,3.838-2.095,3.824,1.066,7.012
		c0.416,0.359,0.594,0.893,0.358,1.312c-1.449,2.598-3.502,4.627-6.094,6.078C59.698,66.936,59.164,66.752,58.811,66.328z"/>
	<path fill-rule="evenodd" clip-rule="evenodd" fill="#2C2B3C" d="M73.317,64.885c4.159,3.266,7.605,7.275,11.376,10.941
		c3.644,3.541,7.156,7.211,10.809,10.738c1.17,1.129,1.325,1.885,0.059,3.057c-2.295,2.119-4.447,4.391-6.654,6.604
		c-0.643,0.643-1.245,1.324-2.179,0.359c-7.396-7.641-15.315-14.764-22.318-22.791c-0.236-0.477-0.231-1,0.084-1.385
		c2.232-2.725,4.713-5.205,7.438-7.438C72.316,64.656,72.837,64.65,73.317,64.885z"/>
	<path fill-rule="evenodd" clip-rule="evenodd" fill="#FCE724" d="M73.317,64.885c-2.968,2.969-5.938,5.938-8.908,8.908
		c-2.332-1.268-3.767-3.52-5.705-5.221c-0.909-0.797-0.467-1.52,0.106-2.244c2.348-2.338,4.698-4.678,7.043-7.016
		c0.71-0.562,1.401-1.107,2.229-0.152C69.775,61.115,72.039,62.549,73.317,64.885z"/>
	<path fill-rule="evenodd" clip-rule="evenodd" fill="#6CB0E0" d="M61.997,36.409c0.053,14.544-11.423,26.069-25.954,26.065
		c-14.41-0.004-25.865-11.41-25.916-25.806c-0.051-14.433,11.301-25.966,25.656-26.064C50.369,10.503,61.945,21.9,61.997,36.409z"/>
	<path fill-rule="evenodd" clip-rule="evenodd" fill="#FDFEFF" d="M15.684,32.027c-0.021-7.614,8.017-15.711,15.034-15.853
		c1.503-0.029,2.803,0.356,2.937,2.108c0.118,1.557-0.914,2.161-2.335,2.433c-6.558,1.25-9.928,4.59-11.073,11
		c-0.277,1.554-0.896,2.635-2.624,2.411C16.049,33.922,15.697,32.697,15.684,32.027z"/>
</g>
</svg>
