<?xml version="1.0" encoding="utf-8"?>
<!-- Generator: Adobe Illustrator 16.0.0, SVG Export Plug-In . SVG Version: 6.00 Build 0)  -->
<!DOCTYPE svg PUBLIC "-//W3C//DTD SVG 1.1//EN" "http://www.w3.org/Graphics/SVG/1.1/DTD/svg11.dtd">
<svg version="1.1" id="Layer_1" xmlns="http://www.w3.org/2000/svg" xmlns:xlink="http://www.w3.org/1999/xlink" x="0px" y="0px"
	 width="100px" height="100px" viewBox="0 0 100 100" enable-background="new 0 0 100 100" xml:space="preserve">
<g>
	<path fill-rule="evenodd" clip-rule="evenodd" fill="#46AF99" d="M86.854,81.853c-4.815,4.415-10.305,7.751-16.349,10.197
		c-7.705,3.118-15.733,4.425-24.002,3.908C34.2,95.19,23.277,90.825,13.819,82.878c-0.396-0.334-0.883-0.572-1.157-1.044
		c-0.038-0.506,0.36-0.723,0.663-1.002c0.36-0.225,0.665-0.521,1.015-0.757c2.048-1.295,4.467-1.681,6.629-2.706
		c1.01-0.479,2.06-0.883,3.082-1.342c0.576-0.191,1.128-0.444,1.689-0.674c2.396-0.996,4.794-1.985,7.182-2.999
		c0.573-0.242,1.125-0.582,1.788-0.552c0.566,0.135,0.707,0.614,0.861,1.076c1.227,3.679,3.858,6.073,7.231,7.707
		c1.749,0.848,3.616,1.429,5.603,1.458c0.172,0.013,0.34,0.049,0.502,0.106c2.021,1.187,4.151,2.062,6.529,2.116
		c3.083,0.07,5.759-1.101,8.189-2.883c2.691-1.971,5.12-4.215,7.004-6.999c0.912-0.186,1.601,0.406,2.374,0.692
		c0.586,0.217,1.165,0.456,1.729,0.728c0.996,0.438,2.021,0.811,3.011,1.267c0.789,0.335,1.606,0.609,2.373,1.002
		c0.324,0.178,0.656,0.335,1.027,0.392c0.909,0.199,1.783,0.509,2.635,0.885c0.903,0.51,1.822,0.998,2.591,1.71
		C86.604,81.276,86.953,81.43,86.854,81.853z"/>
	<path fill-rule="evenodd" clip-rule="evenodd" fill="#F4C940" d="M92.918,67.246c1.503,0.611,3.006,1.224,4.509,1.837
		c-2.415,4.199-5.416,7.93-8.967,11.224c-0.999-0.183-1.644-0.819-2.132-1.66c0.095-0.406,0.441-0.585,0.743-0.793
		c3.216-2.225,4.758-5.421,5.333-9.178C92.482,68.163,92.487,67.629,92.918,67.246z"/>
	<path fill-rule="evenodd" clip-rule="evenodd" fill="#C45D44" d="M2.137,69.093c1.647-0.676,3.295-1.352,4.943-2.028
		c0.012,2.333,0.581,4.541,1.43,6.7c0.715,1.819,1.707,3.46,2.935,4.969c0.256,0.315,0.568,0.604,0.477,1.075
		c-0.172,0.347-0.387,0.623-0.839,0.501C7.541,77.018,4.53,73.302,2.137,69.093z"/>
	<path fill-rule="evenodd" clip-rule="evenodd" fill="#E3BB3E" d="M86.399,78.72c0.686,0.528,1.373,1.058,2.061,1.587
		c-0.461,0.593-1.01,1.094-1.606,1.546c-0.904-0.948-2.02-1.604-3.138-2.261c0.572-0.856,1.556-0.747,2.379-1.019
		C86.214,78.586,86.315,78.634,86.399,78.72z"/>
	<path fill-rule="evenodd" clip-rule="evenodd" fill="#B75943" d="M11.083,80.31c0.24-0.155,0.479-0.312,0.719-0.467
		c0.08-0.077,0.177-0.115,0.286-0.123c0.64,0.229,1.087,0.662,1.355,1.285c-0.26,0.275-0.521,0.552-0.781,0.83
		C12.084,81.38,11.535,80.896,11.083,80.31z"/>
	<path fill-rule="evenodd" clip-rule="evenodd" fill="#B59660" d="M44.829,4.137c1.285,0.005,2.58-0.207,3.845,0.194
		c5.191,1.084,9.771,3.5,14.157,6.394c1.782,1.176,2.963,2.697,3.557,4.705c0.409,1.378,0.984,2.581,2.109,3.59
		c1.475,1.323,1.538,3.17,1.229,4.999c-0.156,0.929-0.587,1.055-1.278,0.387c-0.762-0.736-1.521-1.335-2.663-0.996
		c-1.052-0.18-1.959-0.04-2.727,0.844c-0.513,0.592-1.281,0.902-2.057,1.087c-2.19,0.522-4.395,0.672-6.655,0.525
		c-6.065-0.396-11.981-1.658-17.908-2.881c-2.083-0.429-3.483,0.395-4.324,2.446c-0.28,0.685-0.345,1.465-0.887,2.038
		c-0.536,0.156-0.593-0.299-0.568-0.574c0.129-1.378-0.649-2.478-1.001-3.708c-0.745-2.607-0.733-5.315,0.491-7.787
		c2.739-5.533,6.756-9.633,13.034-11.044C43.735,4.233,44.304,4.376,44.829,4.137z"/>
	<path fill-rule="evenodd" clip-rule="evenodd" fill="#EAB68B" d="M7.565,56.259c-0.583-1.306-0.775-2.722-1.14-4.089
		c-0.135-0.508-0.25-0.914-0.916-0.883c-0.499,0.022-0.934-0.262-1.327-0.547c-1.971-1.422-2.905-5.379-1.817-7.566
		c0.287-0.576,0.698-0.959,1.33-1.093c0.626,0.056,0.538,0.615,0.677,0.994c0.398,1.073,0.346,2.283,1.007,3.269
		c0.182-0.032,0.264-0.173,0.232-0.314c-0.266-1.188-0.055-2.418-0.342-3.603c-0.106-0.621-0.079-1.246-0.085-1.871
		c0.034-0.505,0.019-1.009,0.016-1.514c0.091-3.255,1.722-4.984,5.029-5.343c0.534,0.022,1.073-0.027,1.603,0.074
		c2.927,0.688,5.352,2.264,7.474,4.329c1.982,1.928,3.931,3.892,5.869,5.868c0.249,0.295,0.424,0.634,0.563,0.991
		c0.926,1.985,2.258,3.591,4.252,4.59c0.359,0.18,0.781,0.287,0.98,0.701c-0.128,0.762-0.764,1.033-1.354,1.162
		c-0.883,0.191-1.192,0.715-1.363,1.521c-0.459,2.158-1.054,4.266-2.429,6.067c-0.611,0.801-1.39,1.456-1.945,2.302
		c-0.994,1.012-1.97,2.043-3.014,3.001c-2.186,2.009-4.967,1.989-7.158-0.021c-1.095-1.006-2.228-1.979-2.97-3.303
		c-0.166-0.237-0.333-0.473-0.499-0.71c-0.46-0.662-0.599-1.438-0.752-2.199c-0.151-0.758-0.42-1.347-1.329-1.363
		C7.886,56.704,7.684,56.515,7.565,56.259z"/>
	<path fill-rule="evenodd" clip-rule="evenodd" fill="#413C39" d="M10.242,33.967c-2.156,0.323-3.905,1.134-4.54,3.487
		c-0.137,0.51-0.058,1.023-0.231,1.509c-0.116,0.518-0.125,1.035,0.003,1.551c0.025,0.676,0.051,1.353,0.076,2.029
		c-0.323,0.166-0.569,0.014-0.804-0.191c-0.323-0.496-0.437-1.037-0.354-1.621c0.132-0.351,0.057-0.669-0.16-0.965
		c-0.095-0.246-0.106-0.502-0.074-0.761c0.183-0.435-0.032-0.8-0.21-1.171c-0.143-0.752-0.147-1.504-0.003-2.255
		c0.198-0.378,0.382-0.763,0.207-1.208c-0.088-0.926,0.414-1.562,1.06-2.113c0.387-0.328,0.663-0.688,0.679-1.226
		c0.099-3.15,2.127-4.869,4.651-6.192c0.886-0.464,1.883-0.651,2.826-0.975c2.825-0.549,5.612-0.429,8.355,0.472
		c-0.027,0.255,0.173,0.292,0.343,0.339c1.642,0.45,2.99,1.401,4.273,2.472c0.355,0.378,0.783,0.697,0.96,1.216
		c0.18,1.076,0.079,2.158,0.083,3.237c0.002,0.565-0.257,0.998-0.678,1.353c-1.645,1.384-2.141,3.249-2.229,5.293
		c-0.047,1.081,0.099,2.155,0.061,3.234c-0.542,0.525-0.791-0.042-1.031-0.332c-1.458-1.754-3.044-3.386-4.667-4.984
		c-1.552-1.529-3.237-2.894-5.171-3.894c-2.031-1.05-4.163-1.737-6.488-1.092c-0.147,0.097,0.108,0.165,0.004,0.057
		c-0.038-0.039-0.019-0.064,0.055-0.087c1.546-0.504,3.039-0.17,4.476,0.391c1.968,0.77,3.672,1.984,5.257,3.368
		c0.329,0.287,0.722,0.58,0.492,1.128c-0.466,0.212-0.778-0.124-1.117-0.327c-1.221-0.731-2.496-1.328-3.895-1.632
		C11.727,33.785,10.985,33.862,10.242,33.967z"/>
	<path fill-rule="evenodd" clip-rule="evenodd" fill="#34302B" d="M77.852,24.761c3.331-0.799,6.643-0.796,9.929,0.244
		c1.045,0.609,2.159,1.062,3.095,1.897c2.926,2.615,3.991,6.002,4.368,9.752c0.286,2.836-0.604,5.442-1.361,8.084
		c-0.072,0.25-0.131,0.634-0.582,0.484c-0.296-0.392-0.251-0.854-0.241-1.296c0.038-1.794-0.021-3.584,0.119-5.381
		c0.144-1.844-0.803-3.303-2.198-4.452c-1.585-1.308-3.479-1.854-5.475-2.122c-3.888-0.522-7.682-0.35-11.239,1.545
		c-0.23,0.1-0.467,0.176-0.719,0.084c-1.645-0.972-1.698-2.568-1.652-4.204c0.014-0.555,0.367-0.942,0.664-1.358
		C73.97,26.376,75.749,25.306,77.852,24.761z"/>
	<path fill-rule="evenodd" clip-rule="evenodd" fill="#EAB68B" d="M7.737,66.818c0.129-0.07,0.254-0.149,0.388-0.209
		c3.42-1.514,2.686-0.683,2.758-4.306c0.542-0.065,0.66,0.41,0.875,0.723c1.548,2.258,3.447,4.2,5.375,6.126
		c1.631,1.627,5.08,1.715,6.708-0.061c0.554-0.603,1.151-1.169,1.746-1.735c0.319-0.304,0.601-0.683,1.117-0.663
		c0.123,0.026,0.216,0.094,0.282,0.199c0.095,2.229-0.464,4.329-1.251,6.386c-0.091,0.156-0.207,0.293-0.34,0.416
		c-2.346,1.232-4.812,2.211-7.289,3.124c-1.65,0.608-3.285,1.207-4.817,2.068c-0.196,0.109-0.401,0.201-0.635,0.193
		c-0.56-0.107-0.885-0.526-1.2-0.938c-2.326-3.034-3.548-6.495-3.959-10.269C7.453,67.499,7.477,67.129,7.737,66.818z"/>
	<path fill-rule="evenodd" clip-rule="evenodd" fill="#AA8D5A" d="M65.953,23.223c0.773-0.509,1.425-0.18,2.007,0.338
		c0.388,0.344,0.71,0.765,1.081,1.174c1.061-1.788,0.553-4.82-1.279-6.077c-0.75-0.514-1.023-1.221-1.269-2.001
		c-0.585-1.857-1.119-3.776-2.808-4.975c-1.852-1.315-3.771-2.542-5.785-3.604c-2.912-1.535-5.927-2.809-9.16-3.513
		c-0.033-0.007-0.089-0.026-0.089-0.042c-0.002-0.064,0.013-0.128,0.022-0.193c3.267,0.249,6.234,1.48,9.153,2.837
		c2.722,1.265,5.236,2.895,7.692,4.61c1.38,0.966,1.898,2.481,2.375,3.972c0.405,1.262,0.883,2.34,1.949,3.278
		c1.855,1.631,1.997,4.364,0.586,6.386c-0.216,0.31-0.221,0.625-0.219,0.958c0.006,1.272,0.02,2.545,0.028,3.818
		c0.559,0.734,0.188,1.587,0.303,2.378c0.021,0.398-0.007,0.792-0.138,1.171c-2.088,3.142-2.55,6.794-3.213,10.375
		c-0.237,1.279-0.39,2.577-0.476,3.88c-0.561,5.109-0.559,10.258-1.104,15.37c-0.251,2.362-1.292,4.238-2.894,5.89
		c-0.39,0.401-0.777,0.804-1.187,1.184c-2.387,1.986-4.73,4.044-7.735,5.096c-0.812,0.284-1.61,0.626-2.502,0.539
		c-0.245-0.06-0.596-0.05-0.591-0.384c0.006-0.358,0.379-0.437,0.648-0.522c1.804-0.577,3.398-1.535,4.929-2.629
		c1.96-1.4,3.653-3.089,5.286-4.84c0.839-0.898,1.319-2.012,1.495-3.215c0.475-3.255,0.683-6.532,0.848-10.065
		c-0.631,0.478-1.055,0.972-1.668,1.072c-0.55,0.091-1.186,0.425-1.516-0.386c1.904-1.809,3.175-3.934,3.407-6.616
		c0.073-0.816,0.241-1.629,0.355-2.444c0.458-3.299,0.957-6.592,1.396-9.895c0.097-0.729,0.391-1.355,0.81-1.944
		c1.99-2.783,1.862-5.72,0.676-8.759C67.041,24.597,66.166,24.126,65.953,23.223z"/>
	<path fill-rule="evenodd" clip-rule="evenodd" fill="#BCA06F" d="M44.829,4.137c-1.339,0.41-2.716,0.651-4.029,1.19
		c-4.097,1.681-7.03,4.603-9.384,8.272c-1.847,2.88-2.184,5.947-1.629,9.211c0.006,0.037-0.004,0.083,0.015,0.11
		c1.017,1.357,1.111,2.976,1.303,4.568c0.44,0.499,0.13,1.064,0.115,1.593c-0.021,0.706,0.153,1.395,0.12,2.096
		c-0.26,0.987-0.217,1.988,0.346,2.819c0.973,1.438,1.371,3.057,1.762,4.698c0.164,0.687,0.269,1.4,0.694,2
		c0.579,2.797,0.97,5.622,1.257,8.463c-0.268,1.677,0.049,3.353,0.143,5.013c0.157,2.792,0.313,5.59,0.578,8.38
		c0.232,2.451,1.029,4.482,2.86,6.241c2.309,2.218,4.626,4.356,7.556,5.732c0.646,0.303,1.291,0.586,1.982,0.772
		c0.417,0.109,0.913,0.137,1.083,0.665c-0.411,0.506-0.945,0.314-1.444,0.236c-2.998-0.468-5.501-1.971-7.858-3.773
		c-0.719-0.739-1.602-1.292-2.316-2.038c-0.202-0.169-0.37-0.375-0.57-0.542c-2.317-1.928-3.426-4.396-3.659-7.404
		c-0.366-4.728-0.525-9.466-0.924-14.189c-0.371-3.789-1.06-7.513-2.127-11.174c-0.377-1.292-0.83-2.457-2.097-3.116
		c0.479-0.884,0.369-1.847,0.409-2.797c0.026-0.609-0.145-1.258,0.257-1.817c0.014-1.27,0.034-2.538,0.039-3.807
		c0-0.219,0.004-0.478-0.103-0.652c-2.797-4.583-1.319-8.724,1.409-12.648c3.025-4.353,7.129-7.132,12.432-8.007
		C43.643,4.136,44.232,4.12,44.829,4.137z"/>
	<path fill-rule="evenodd" clip-rule="evenodd" fill="#82644B" d="M89.128,65.499c0.898,0.424,1.797,0.849,2.695,1.272
		c0.539,1.72-0.039,3.27-0.726,4.806c-2.685,1.856-5.581,2.459-8.7,1.314c-1.901-0.695-3.692-1.649-5.375-2.775
		c-1.532-1.024-2.102-2.545-2.026-4.343c0.077-0.173,0.202-0.3,0.37-0.382c0.872-0.035,1.499,0.568,2.243,0.867
		c1.158,0.466,2.231,1.186,3.555,1.137c0.721-0.002,1.442-0.008,2.162-0.003c1.768,0.046,3.154-1.009,4.688-1.634
		C88.377,65.613,88.672,65.228,89.128,65.499z"/>
	<path fill-rule="evenodd" clip-rule="evenodd" fill="#D4A57F" d="M26.688,66.785c-0.993,0.679-1.781,1.585-2.575,2.461
		c-1.807,1.993-5.559,1.821-7.331-0.01c-2.117-2.189-4.192-4.399-5.899-6.933c-0.208-0.424-0.194-0.87-0.146-1.322
		c1.034,1.013,2.063,2.028,3.101,3.035c2.091,2.028,4.875,2.008,6.983-0.04c0.962-0.935,1.936-1.857,2.904-2.786
		c0.527,0.746,0.319,1.604,0.272,2.396c-0.07,1.199,0.402,1.904,1.501,2.312C25.96,66.069,26.553,66.142,26.688,66.785z"/>
	<path fill-rule="evenodd" clip-rule="evenodd" fill="#292622" d="M89.128,65.499c-1.376,0.73-2.784,1.393-4.232,1.971
		c-0.464,0.185-0.919,0.279-1.411,0.231c-0.013-0.56,0.47-0.624,0.822-0.765c1.146-0.457,2.198-1.133,3.327-1.585
		c2.634-1.053,3.499-3.172,3.835-5.702c0.176-1.333,0.309-2.669,0.256-4.017c0.559-3.07,0.82-6.18,1.27-9.263
		c0.059-0.396,0.035-0.829,0.39-1.126c0.826-2.782,1.848-5.512,1.566-8.513c-0.478-5.087-2.312-9.272-7.291-11.48
		c-0.056-0.025-0.103-0.071-0.152-0.107c0.091-0.046,0.182-0.093,0.273-0.14c2.401,0.504,4.153,1.975,5.575,3.862
		c2.272,3.019,2.831,6.512,2.609,10.181c-0.057,0.93-0.212,1.852-0.322,2.777c-0.571,2.639-1.203,5.268-1.594,7.943
		c-0.051,0.34-0.214,0.63-0.436,0.887c-0.292,1.242-0.426,2.504-0.43,3.778c-0.009,2.062-0.138,4.104-0.483,6.142
		C92.315,62.829,91.282,64.555,89.128,65.499z"/>
	<path fill-rule="evenodd" clip-rule="evenodd" fill="#3D3835" d="M29.27,29.348c0.017,1.194-0.017,2.394,0.071,3.584
		c0.045,0.612-0.228,0.863-0.701,1.056c-3.12,3.101-2.25,6.564-0.922,10.076c0.289,0.764,0.948,1.357,1.005,2.222
		c-0.465,0.453-0.818,0.038-1.154-0.188c-0.522-0.351-1.015-0.753-1.26-1.37c-0.019-0.535-0.422-0.827-0.728-1.192
		c-0.479-0.575-1.174-1.023-1.193-1.89c-0.375-2.494-0.497-4.966,0.733-7.299c0.171-0.324,0.352-0.711,0.64-0.898
		c1.266-0.823,1.48-2.006,1.334-3.379c-0.066-0.628-0.011-1.27-0.012-1.904c0.997,0.348,1.416,1.206,1.844,1.975
		c0.013-0.222-0.151-0.58,0.174-0.835C29.157,29.316,29.214,29.329,29.27,29.348z"/>
	<path fill-rule="evenodd" clip-rule="evenodd" fill="#494442" d="M4.389,38.951c0,0.3,0,0.599,0.002,0.898
		c0.212,0.18,0.224,0.425,0.222,0.675c-0.11,0.623,0.213,1.19,0.227,1.796c0.597,1.441,1.004,2.9,0.452,4.457
		c-0.526,0.013-0.39-0.424-0.482-0.708c-0.431-1.312-0.468-2.735-1.114-3.988c-0.47-2.57-0.984-5.138-0.447-7.765
		c0.178-0.87,0.513-1.661,1.361-2.074c0.419-0.204,0.495-0.495,0.465-0.902c-0.117-1.595,0.508-2.944,1.549-4.072
		c1.812-1.963,4.092-3.074,6.746-3.405c-0.819,0.618-1.876,0.667-2.751,1.173c-1.605,0.93-3.053,2.008-3.931,3.701
		c-0.086,0.166-0.203,0.333-0.227,0.51c-0.219,1.559-0.399,3.116-1.85,4.143c-0.3,0.213-0.234,0.689-0.221,1.066
		c-0.144,0.283,0.098,0.661-0.224,0.899c0,0.899,0,1.799,0,2.697C4.487,38.291,4.245,38.669,4.389,38.951z"/>
	<path fill-rule="evenodd" clip-rule="evenodd" fill="#906E53" d="M93.613,50.655c0.345-2.784,0.967-5.517,1.57-8.252
		c0.06-0.272,0.19-0.478,0.459-0.578c1.552,0.332,1.609,1.68,1.673,2.797c0.11,1.977-0.421,3.82-1.918,5.26
		C94.897,50.364,94.33,50.68,93.613,50.655z"/>
	<path fill-rule="evenodd" clip-rule="evenodd" fill="#DDB53A" d="M90.872,71.532c0.667-1.517,0.86-3.128,0.951-4.761
		c0.415,0.042,0.784,0.19,1.095,0.475c-0.357,3.234-1.25,6.248-3.375,8.826c-0.897,1.091-2.106,1.754-3.144,2.647
		c-0.076,0-0.151,0-0.228-0.002c-0.417-0.162-0.886-0.282-0.768-0.901c0.118-0.247,0.34-0.384,0.564-0.518
		c1.845-1.092,3.19-2.64,4.122-4.555C90.305,72.306,90.616,71.94,90.872,71.532z"/>
	<path fill-rule="evenodd" clip-rule="evenodd" fill="#B3543F" d="M7.737,66.818c0.215,4.049,1.42,7.753,3.855,11.025
		c0.312,0.42,0.638,0.829,1.084,1.118c0.085,0.06,0.109,0.138,0.074,0.236c-0.2,0.261-0.47,0.441-0.722,0.645
		c-0.075,0-0.151,0-0.227,0c-0.456-1.026-1.332-1.757-1.905-2.707c-1.658-2.744-2.795-5.658-3.034-8.882
		c-0.03-0.411-0.024-0.825,0.217-1.189C7.276,66.92,7.478,66.795,7.737,66.818z"/>
	<path fill-rule="evenodd" clip-rule="evenodd" fill="#E7B189" d="M7.565,56.259c2.032-0.032,2.294,1.402,2.454,2.939
		c0.038,0.361,0.145,0.715,0.221,1.073C9.075,59.115,8.053,57.864,7.565,56.259z"/>
	<path fill-rule="evenodd" clip-rule="evenodd" fill="#42413B" d="M70.243,32.658c-0.001-0.822-0.003-1.646-0.004-2.468
		c0.689-0.806,1.134-1.81,1.99-2.483c0.405-0.099,0.42,0.198,0.467,0.461c-0.227,0.373-0.452,0.746-0.677,1.12
		C71.556,30.479,71.241,31.749,70.243,32.658z"/>
	<path fill-rule="evenodd" clip-rule="evenodd" fill="#464642" d="M72.696,28.168c-0.155-0.154-0.311-0.307-0.467-0.461
		c1.531-1.637,3.37-2.687,5.622-2.946C75.903,25.549,74.172,26.663,72.696,28.168z"/>
	<path fill-rule="evenodd" clip-rule="evenodd" fill="#373431" d="M29.1,29.306c0,0.364,0,0.729,0,1.235
		c-0.73-0.859-1.374-1.617-2.018-2.375c-0.382-0.217-0.683-0.516-0.898-0.899c-0.149-0.31-0.121-0.514,0.291-0.487
		C27.363,27.608,28.493,28.186,29.1,29.306z"/>
	<path fill-rule="evenodd" clip-rule="evenodd" fill="#3C3937" d="M26.475,26.78c-0.213,0.094-0.282,0.271-0.291,0.487
		c-1.439-0.989-2.836-2.049-4.523-2.617c-0.392-0.131-0.246-0.266,0.064-0.315C23.469,24.837,25.103,25.556,26.475,26.78z"/>
	<path fill-rule="evenodd" clip-rule="evenodd" fill="#42A48F" d="M70.672,74.463c-0.104,0.701-0.541,1.236-0.979,1.729
		c-2.304,2.601-4.81,4.999-7.867,6.695c-4.26,2.36-8.838,2.315-12.951-0.57c0.509-0.459,1.137-0.296,1.715-0.287
		c4.521,0.062,8.294-1.628,11.411-4.843c1.211-1.247,2.121-2.697,2.604-4.388c0.082-0.287,0.159-0.578,0.367-0.809
		c0.3-0.193,0.58-0.048,0.853,0.064c1.314,0.542,2.635,1.072,3.938,1.643C70.133,73.86,70.541,74.005,70.672,74.463z"/>
	<path fill-rule="evenodd" clip-rule="evenodd" fill="#3C9583" d="M65.053,72.071c-0.778,3.783-3.24,6.261-6.402,8.159
		c-3.011,1.807-6.317,2.326-9.775,2.087c-0.149-0.002-0.297-0.005-0.446-0.007c-0.652-0.28-1.269-0.621-1.766-1.137
		c-0.275-0.285-0.509-0.61,0.058-0.86c1.084-0.195,2.14,0.175,3.226,0.149c4.25-0.1,7.974-1.365,10.917-4.582
		c0.927-1.014,1.588-2.156,2.104-3.407c0.165-0.405,0.224-0.884,0.702-1.089C64.271,71.327,64.77,71.484,65.053,72.071z"/>
	<path fill-rule="evenodd" clip-rule="evenodd" fill="#409E8B" d="M46.692,80.483c-0.266,0.518,0.231,0.552,0.473,0.753
		c0.424,0.354,0.842,0.716,1.263,1.075c-3.391-0.154-6.392-1.359-8.987-3.504c-1.972-1.629-3.599-3.551-4.231-6.129
		c-0.075-0.304-0.179-0.569-0.488-0.702c0.348-0.799,1.075-0.875,1.803-0.949c0.214,0.171,0.297,0.424,0.373,0.67
		c1.288,4.154,4.26,6.569,8.217,7.968C45.622,79.975,46.386,79.79,46.692,80.483z"/>
	<path fill-rule="evenodd" clip-rule="evenodd" fill="#DBAC82" d="M12.708,79.167c-0.008-0.069-0.018-0.137-0.03-0.205
		c1.703-1.098,3.569-1.793,5.48-2.458c2.421-0.843,4.747-1.957,7.114-2.954c0.203,1.172-0.474,1.954-1.204,2.713
		c-1.717,0.979-3.566,1.684-5.413,2.332c-1.475,0.519-2.921,1.069-4.325,1.747C13.523,80.316,13.015,79.881,12.708,79.167z"/>
	<path fill-rule="evenodd" clip-rule="evenodd" fill="#E4BB3D" d="M65.053,72.071c-0.462-0.195-0.923-0.389-1.386-0.584
		c-0.479-0.052-1.074,0.089-1.103-0.686c0.905-0.563,1.838-1.055,2.92-1.188c2.104,0.845,4.181,1.762,6.285,2.607
		c0.381,0.154,0.749,0.334,1.172,0.323c0.446,0.131,0.436,0.584,0.633,0.892c0.398,0.87,1.215,1.505,1.397,2.493
		c0.004,0.025-0.034,0.064-0.06,0.089c-0.047,0.049-0.113,0.049-0.193,0.009c-1.349-0.521-2.698-1.043-4.047-1.564
		C68.799,73.665,66.927,72.867,65.053,72.071z"/>
	<path fill-rule="evenodd" clip-rule="evenodd" fill="#B85741" d="M36.468,71.148c-0.582,0.275-1.164,0.551-1.745,0.828
		c-2.577,1.058-5.153,2.118-7.732,3.171c-0.41,0.168-0.835,0.301-1.253,0.45c-0.388-0.989,0.466-1.671,0.621-2.527
		c0.075-0.222,0.184-0.418,0.41-0.521c2.084-0.731,4.074-1.696,6.135-2.483c0.453-0.173,0.892-0.399,1.4-0.356
		c0.952,0.281,1.922,0.522,2.711,1.182C36.944,71.213,36.733,71.237,36.468,71.148z"/>
	<path fill-rule="evenodd" clip-rule="evenodd" fill="#87674E" d="M80.088,78.285c-0.814-0.313-1.628-0.626-2.442-0.939
		c-0.852-0.752-1.866-1.341-2.429-2.381c-0.183-0.334-0.567-0.639-0.189-1.074c0.472-0.196,0.875,0.051,1.281,0.217
		c2.413,0.982,4.783,2.062,7.277,2.844c0.575,0.179,1.461,0.226,1.422,1.221c-1.208,0.855-2.534,0.636-3.858,0.43
		C80.799,78.488,80.434,78.42,80.088,78.285z"/>
	<path fill-rule="evenodd" clip-rule="evenodd" fill="#CFAA36" d="M74.934,74.003c0.54,0.964,1.169,1.852,2.087,2.503
		c0.295,0.21,0.63,0.403,0.625,0.84c-0.977-0.438-1.95-0.879-2.927-1.318c-0.151-0.989-1.025-1.583-1.352-2.475
		c0.246-0.694,0.713-0.234,1.098-0.215C74.755,73.464,74.941,73.666,74.934,74.003z"/>
	<path fill-rule="evenodd" clip-rule="evenodd" fill="#CFAA36" d="M80.997,78.474c1.372,0.083,2.732,0.074,4.032-0.466
		c0.118-0.17,0.25-0.302,0.476-0.168c-0.015,0.473,0.577,0.486,0.667,0.878c-0.818,0.291-1.638,0.583-2.456,0.874
		c-0.9-0.296-1.801-0.592-2.702-0.888c-0.058-0.048-0.078-0.097-0.064-0.149C80.965,78.5,80.98,78.474,80.997,78.474z"/>
	<path fill-rule="evenodd" clip-rule="evenodd" fill="#A8513B" d="M26.632,73.104c-0.187,0.871-0.808,1.586-0.895,2.494
		c-0.523,0.303-1.054,0.589-1.669,0.665c0.351-0.927,0.982-1.729,1.203-2.712c0.075-0.076,0.15-0.153,0.226-0.228
		C25.833,73.026,26.17,72.744,26.632,73.104z"/>
	<path fill-rule="evenodd" clip-rule="evenodd" fill="#A8513D" d="M12.708,79.167c0.541,0.391,1.082,0.782,1.622,1.175
		c-0.246,0.287-0.515,0.545-0.886,0.662c-0.471-0.387-0.943-0.773-1.415-1.161C12.048,79.409,12.279,79.188,12.708,79.167z"/>
	<path fill-rule="evenodd" clip-rule="evenodd" fill="#9FA254" d="M80.997,78.474c0.006,0.076,0.011,0.153,0.017,0.23
		c-0.362-0.022-0.674-0.154-0.925-0.419C80.404,78.288,80.743,78.18,80.997,78.474z"/>
	<path fill-rule="evenodd" clip-rule="evenodd" fill="#F7CEAC" d="M35.15,49.301c-0.421-2.854-0.713-5.728-1.311-8.553
		c-0.186-0.755-0.352-1.513-0.483-2.282c-0.281-1.649-0.46-3.321-1.549-4.737c-0.51-0.666-0.862-1.488-0.703-2.403
		c-0.272-1.28-0.269-2.56,0.001-3.838c0.386-1.125,0.624-2.302,1.331-3.306c1.003-1.426,2.269-1.944,3.978-1.552
		c5.218,1.194,10.476,2.202,15.796,2.784c2.878,0.315,5.793,0.441,8.649-0.358c0.995-0.278,1.854-0.714,2.516-1.547
		c0.738-0.929,1.684-0.479,2.578-0.286c2.675,2.2,3.487,7.139,1.535,10.221c-0.865,1.365-1.334,2.766-1.544,4.343
		c-0.538,4.022-1.133,8.037-1.771,12.043c-0.353,2.232-1.453,4.053-3.371,5.323c-0.504,0.715-1.182,0.468-1.824,0.307
		c-0.934-0.232-1.634-0.888-2.382-1.431c-1.733-1.255-3.561-1.664-5.567-0.758c-1.382,0.625-2.622-0.011-3.896-0.381
		c-1.323-0.439-2.479-0.007-3.593,0.677c-1.074,0.658-2.008,1.548-3.229,1.968c-0.685,0.191-1.35,0.095-1.923-0.292
		C36.292,53.826,35.123,51.885,35.15,49.301z"/>
	<path fill-rule="evenodd" clip-rule="evenodd" fill="#66C6CB" d="M36.913,70.921c-0.88-0.322-1.76-0.644-2.641-0.965
		c-2.3-0.459-4.29-1.718-6.467-2.495c-0.362-0.145-0.68-0.355-0.949-0.637c-0.052-0.029-0.108-0.042-0.167-0.039
		c-0.67-0.312-1.331-0.647-2.013-0.93c-0.708-0.29-1.037-0.748-0.99-1.541c0.061-1.039,0.031-2.082,0.04-3.123
		c0.107-0.196,0.172-0.437,0.327-0.58c2.44-2.26,3.469-5.211,4.079-8.357c0.123-0.637,0.313-0.953,1.046-0.993
		c0.702-0.038,1.338-0.42,1.736-1.072c0.292-0.835,0.713-1.585,1.392-2.173c0.289-0.098,0.563-0.096,0.807,0.117
		c0.317,4.657,0.664,9.313,0.938,13.972c0.167,2.848,1.008,5.34,3.274,7.22c0.369,0.306,0.659,0.707,0.986,1.064
		C38,70.975,37.524,71.126,36.913,70.921z"/>
	<path fill-rule="evenodd" clip-rule="evenodd" fill="#DBAB83" d="M32.248,48.187c-0.432,0.676-0.651,1.494-1.335,2.001
		c-2.641-0.849-4.337-2.681-5.397-5.177c0.611-0.177,0.932,0.287,1.314,0.602c0.623,0.51,1.224,1.057,2.119,0.966
		C30.055,47.104,31.108,47.735,32.248,48.187z"/>
	<path fill-rule="evenodd" clip-rule="evenodd" fill="#D3A57E" d="M12.464,33.962c1.811,0.292,3.377,1.181,4.959,2.031
		c1.141,0.203,1.84,1.104,2.631,1.792c1.578,1.375,2.991,2.933,4.446,4.439c0.267,0.275,0.412,0.619,0.568,0.958
		c0.081,0.315,0.255,0.634-0.014,0.944c-1.461-1.428-2.967-2.814-4.372-4.296c-2.458-2.59-5.178-4.758-8.656-5.814
		C12.158,33.875,12.308,33.892,12.464,33.962z"/>
	<path fill-rule="evenodd" clip-rule="evenodd" fill="#C39A75" d="M25.055,44.125c-0.065-0.321-0.129-0.641-0.193-0.962
		c0.777,0.182,1.207,0.737,1.516,1.42c0.664,0.714,1.271,1.5,2.274,1.779c0.208,0.08,0.332,0.207,0.259,0.448
		c-0.872,0.067-1.564-0.321-2.16-0.899c-0.372-0.362-0.751-0.697-1.234-0.899C25.362,44.716,25.208,44.421,25.055,44.125z"/>
	<path fill-rule="evenodd" clip-rule="evenodd" fill="#413C39" d="M5.291,46.776c0.163-1.517-0.432-2.957-0.452-4.457
		c0.237,0.075,0.474,0.148,0.712,0.222c0.127,1.234,0.246,2.471,0.387,3.704C6.001,46.795,5.733,46.877,5.291,46.776z"/>
	<path fill-rule="evenodd" clip-rule="evenodd" fill="#413C39" d="M12.464,33.962c-0.146,0.018-0.291,0.035-0.437,0.053
		c-0.595-0.017-1.189-0.033-1.785-0.048C10.982,33.67,11.723,33.673,12.464,33.962z"/>
	<path fill-rule="evenodd" clip-rule="evenodd" fill="#413C39" d="M5.475,40.513c-0.287-0.516-0.283-1.033-0.003-1.551
		C5.473,39.48,5.474,39.996,5.475,40.513z"/>
	<path fill-rule="evenodd" clip-rule="evenodd" fill="#3B3634" d="M26.377,44.583c-0.505-0.473-1.011-0.946-1.516-1.42
		c-2.208-2.672-4.683-5.067-7.438-7.17c-0.924-1.458-2.38-2.299-3.779-3.18c-1.461-0.919-3.074-1.469-4.8-1.714
		C8.155,31,7.544,31.459,6.602,31.18c1.188-0.41,2.154-0.657,3.183-0.502c2.813,0.424,5.18,1.772,7.325,3.577
		c2.52,2.117,4.802,4.464,6.839,7.05c0.111,0.141,0.29,0.229,0.437,0.341c0.556,0.765,1.121,1.52,1.817,2.171
		C26.403,44.003,26.843,44.213,26.377,44.583z"/>
	<path fill-rule="evenodd" clip-rule="evenodd" fill="#413C39" d="M4.165,35.355c0.03-0.311-0.104-0.662,0.224-0.899
		C4.51,34.804,4.901,35.22,4.165,35.355z"/>
	<path fill-rule="evenodd" clip-rule="evenodd" fill="#413C39" d="M4.389,38.951c-0.328-0.237-0.193-0.588-0.223-0.899
		C4.902,38.187,4.51,38.603,4.389,38.951z"/>
	<path fill-rule="evenodd" clip-rule="evenodd" fill="#413C39" d="M4.612,40.524c-0.262-0.162-0.215-0.427-0.222-0.675
		C4.869,39.941,4.982,40.152,4.612,40.524z"/>
	<path fill-rule="evenodd" clip-rule="evenodd" fill="#906E53" d="M93.384,45.244c-0.357,3.521-0.701,7.042-1.387,10.519
		c-0.147,0.461-0.316,0.896-0.672,1.264c-1.209,1.247-1.928,1.307-3.037-0.04c-2.753-3.339-9.105-3.27-11.775-0.252
		c-1.583,1.789-2.593,1.593-3.883-0.442c-0.1-0.159-0.185-0.326-0.262-0.497c-0.713-2.234-0.816-4.564-1.082-6.869
		c0.009-0.189,0.049-0.373,0.125-0.545c1.921-2.193,3.09-4.72,3.527-7.619c0.317-2.099,0.075-4.091-0.722-6.039
		c-0.175-0.429-0.554-0.848-0.17-1.354c1.521-1.133,3.317-1.51,5.123-1.761c3.246-0.453,6.482-0.315,9.577,0.844
		c2.423,0.909,4.201,2.504,4.76,5.2c0.153,0.738-0.142,1.399-0.139,2.102C93.376,41.584,93.381,43.414,93.384,45.244z"/>
	<path fill-rule="evenodd" clip-rule="evenodd" fill="#87674E" d="M74.047,33.37c0.336,1.281,1.009,2.438,1.184,3.793
		c0.468,3.604-0.364,6.859-2.396,9.827c-0.35,0.511-0.647,1.104-1.256,1.399c-0.867-0.744-0.409-1.78-0.59-2.675
		c0.013-0.307,0.16-0.568,0.302-0.828c1.724-3.127,2.112-6.372,0.854-9.759c0.194-0.787,0.734-1.251,1.456-1.543
		C73.75,33.512,73.899,33.441,74.047,33.37z"/>
	<path fill-rule="evenodd" clip-rule="evenodd" fill="#302C27" d="M73.601,33.583c-0.444,0.436-0.888,0.872-1.33,1.308
		c-0.732-0.279-1.375-0.722-2.031-1.138c0.001-0.365,0.003-0.731,0.004-1.096c0.604-1.117,0.9-2.396,1.776-3.369
		c0.026,0.025,0.077,0.052,0.077,0.078C72.093,30.953,72.435,32.415,73.601,33.583z"/>
	<path fill-rule="evenodd" clip-rule="evenodd" fill="#B3553E" d="M26.855,66.824c0.351,0.014,0.644,0.174,0.919,0.372
		c0.439,0.641,0.347,1.353,0.199,2.033c-0.254,1.176-0.284,2.434-1.118,3.423c-0.18,0.099-0.218,0.267-0.224,0.451
		c-0.377,0.072-0.757,0.147-1.135,0.22C26.17,71.203,26.664,69.044,26.855,66.824z"/>
	<path fill-rule="evenodd" clip-rule="evenodd" fill="#B59660" d="M47.1,52.645c0.254,0.052,0.524,0.064,0.76,0.161
		c1.229,0.502,2.428,0.56,3.678,0.01c1.656-0.727,3.223-0.356,4.682,0.604c0.593,0.39,1.155,0.825,1.741,1.227
		c0.868,0.594,1.786,0.948,2.842,0.508c1.453,0.652,2.257-0.417,3.128-1.241c0.376,0.252,0.223,0.581,0.215,0.843
		c-0.092,3.419-0.301,6.83-0.887,10.206c-0.23,1.327-0.926,2.415-1.858,3.379c-2.423,2.501-4.955,4.861-8.144,6.379
		c-0.77,0.366-1.586,0.638-2.383,0.952c0.122,0.188,0.328,0.106,0.499,0.143c-0.525,0.828-1.162,0.596-1.816,0.19
		c-2.307-0.754-4.48-1.759-6.484-3.16c-2.165-1.516-3.895-3.475-5.699-5.353c-1.159-1.207-1.37-2.877-1.51-4.469
		c-0.337-3.812-0.684-7.627-0.692-11.46c-0.001-0.754-0.553-1.503-0.021-2.261c0.317,1.873,1.008,3.559,2.373,4.937
		c0.778,0.785,1.652,1.252,2.786,1.095c1.501-0.26,2.814-0.892,4.019-1.838C45.111,52.879,45.996,52.335,47.1,52.645z"/>
	<path fill-rule="evenodd" clip-rule="evenodd" fill="#66C6CB" d="M65.517,69.778c-0.974,0.374-1.947,0.748-2.922,1.121
		c-0.642,0.311-1.081,0.066-1.402-0.507c0.723-0.802,1.419-1.63,2.176-2.398c1.187-1.207,1.717-2.702,1.875-4.324
		c0.344-3.558,0.629-7.12,0.743-10.697c0.053-1.67,0.29-3.335,0.441-5.003c0.5-0.224,0.988-0.085,1.48,0.032
		c0.637,0.373,0.767,1.176,1.353,1.592c0.5,0.555,1.292,0.613,1.847,1.077c0.494,1.078,0.566,2.232,0.543,3.386
		c-0.04,2.248,0.163,4.471,0.596,6.673c0.334,1.688,0.892,3.254,2.621,4.061c0.271,0.126,0.478,0.359,0.531,0.682
		c-0.077,0.088-0.153,0.174-0.23,0.262c-0.605,0.792-1.604,0.826-2.399,1.255c-0.353,0.14-0.684,0.319-1.031,0.474
		c-1.63,0.618-3.224,1.327-4.828,2.006C66.456,69.657,66.01,69.812,65.517,69.778z"/>
	<path fill-rule="evenodd" clip-rule="evenodd" fill="#E8C1A1" d="M61.192,70.393c0.451,0.217,0.887,0.47,1.402,0.507
		c0.357,0.196,0.715,0.393,1.072,0.588c-2.202,7.294-9.98,10.081-15.97,9.077c-0.331-0.055-0.67-0.055-1.004-0.081
		c-0.56-0.201-1.121-0.403-1.681-0.605c-0.992-1.066-2.062-2.056-3.075-3.102c-0.88-0.91-1.44-1.998-1.753-3.213
		c-0.12-0.466-0.243-0.959,0.163-1.373c1.795,1.19,3.549,2.46,5.619,3.16c1.163,0.394,2.341,0.726,3.591,0.653
		c0.608-0.038,1.245,0.201,1.816-0.19c2.786-0.275,5.035-1.726,7.206-3.325C59.478,71.826,60.322,71.093,61.192,70.393z"/>
	<path fill-rule="evenodd" clip-rule="evenodd" fill="#F7CEAC" d="M67.946,48.147c-0.512-0.008-1.03,0.042-1.519-0.178
		c0.267-4.141,1.126-8.167,2.432-12.096c0.264-0.796,0.614-1.614,1.38-2.12c0.893-0.005,1.486,0.52,2.03,1.138
		c1.745,3.825,0.928,7.389-1.096,10.832c-0.003,0.479-0.367,0.733-0.64,1.046C69.81,47.489,69.075,48.19,67.946,48.147z"/>
	<path fill-rule="evenodd" clip-rule="evenodd" fill="#F7CEAC" d="M28.911,46.81c-0.086-0.149-0.172-0.299-0.259-0.448
		c-1.331-2.011-2.201-4.183-2.359-6.616c-0.087-1.35,0.027-2.673,0.545-3.933c0.347-0.846,0.837-1.578,1.802-1.825
		c1.335-0.093,1.711,0.94,1.994,1.873c0.611,2.019,1.13,4.07,1.609,6.125c0.469,2.02,0.633,4.09,0.869,6.146
		c-0.288,0.018-0.576,0.036-0.863,0.055C30.895,48.313,30.006,47.312,28.911,46.81z"/>
	<path fill-rule="evenodd" clip-rule="evenodd" fill="#F7CEAC" d="M40.347,72.19c-0.077,1.741,0.647,3.166,1.8,4.396
		c0.84,0.895,1.74,1.731,2.59,2.617c0.161,0.167,0.603,0.284,0.275,0.675c-4.374-1.417-7.335-4.216-8.543-8.729
		c0.148-0.076,0.296-0.153,0.444-0.228c0.466-0.178,0.933-0.355,1.398-0.532C38.982,70.995,39.805,71.435,40.347,72.19z"/>
	<path fill-rule="evenodd" clip-rule="evenodd" fill="#B69861" d="M31.104,31.326c0.368,1.212,0.843,2.372,1.671,3.355
		c0.379,0.45,0.449,1.025,0.527,1.561c0.22,1.495,0.363,3.002,0.537,4.506c-0.687-1.052-0.722-2.306-1.038-3.467
		c-0.287-1.052-0.684-2.018-1.271-2.934C30.938,33.422,30.659,32.416,31.104,31.326z"/>
	<path fill-rule="evenodd" clip-rule="evenodd" fill="#34302B" d="M72.682,55.814c0.11,0.193,0.208,0.399,0.337,0.581
		c1.19,1.653,1.872,1.777,3.164,0.251c2.87-3.39,9.723-3.349,12.457,0.325c0.776,1.044,1.277,1.039,2.191,0.144
		c0.424-0.414,0.779-0.898,1.166-1.352c0.104,2.444-0.203,4.821-1.091,7.119c-0.286,0.739-0.733,1.296-1.39,1.692
		c-1.661,1.002-3.32,2.011-5.163,2.659c-0.317,0.111-0.648,0.183-0.87,0.467c-0.824,0-1.65,0-2.476,0.001
		c-2.065-0.676-3.983-1.665-5.87-2.732c-0.971-0.55-1.556-1.367-1.932-2.377c-0.689-1.841-0.894-3.774-1.017-5.714
		C72.164,56.485,72.051,55.949,72.682,55.814z"/>
	<path fill-rule="evenodd" clip-rule="evenodd" fill="#906E53" d="M72.694,66.789c0.824-0.353,1.648-0.705,2.474-1.057
		c0.014,2.556,1.438,4.115,3.628,5.138c1.385,0.647,2.723,1.44,4.162,1.92c2.462,0.817,4.847,0.296,7.116-0.849
		c0.267-0.135,0.532-0.272,0.798-0.409c-0.963,2.807-2.696,4.954-5.367,6.308c-0.157,0.057-0.316,0.112-0.476,0.168
		c-1.119-0.867-2.52-1.041-3.788-1.54c-1.796-0.708-3.568-1.472-5.348-2.223c-0.311-0.131-0.609-0.277-0.96-0.242
		c-0.141-0.152-0.282-0.304-0.424-0.456c-1.323-1.374-1.565-3.172-1.872-4.926C72.535,68.03,72.229,67.384,72.694,66.789z"/>
	<path fill-rule="evenodd" clip-rule="evenodd" fill="#46443F" d="M72.682,55.814c-0.597,1.322,0.12,2.614,0.099,3.926
		c-0.004,0.362,0.141,0.726,0.199,1.091c0.361,2.281,1.625,3.822,3.739,4.75c1.458,0.642,2.86,1.41,4.289,2.121
		c-1.527-0.071-2.795-0.865-4.121-1.491c-0.501-0.236-0.993-0.493-1.488-0.74c-3.098-1.305-3.447-4.113-3.841-6.935
		c-0.321-2.303-0.006-4.638-0.421-6.931c-0.059-0.33-0.036-0.674-0.232-0.968c-0.286-0.303-0.31-0.676-0.301-1.062
		c0.227-1.04,0.266-1.07,0.941-0.745C71.924,51.158,71.949,53.544,72.682,55.814z"/>
	<path fill-rule="evenodd" clip-rule="evenodd" fill="#F4C940" d="M65.517,69.778c2.086-0.867,4.174-1.735,6.261-2.603
		c0.58,0.957,0.41,2.084,0.688,3.114c0.207,0.769,0.699,1.503,0.456,2.363c-0.12,0.169-0.295,0.267-0.481,0.177
		C70.166,71.734,67.712,71.047,65.517,69.778z"/>
	<path fill-rule="evenodd" clip-rule="evenodd" fill="#DDB53A" d="M72.921,72.653c-0.698-1.76-1.18-3.564-1.144-5.478
		c0.272-0.208,0.562-0.375,0.917-0.387c0.166,2.372,0.762,4.627,1.815,6.758c-0.38,0.168-0.764-0.396-1.143,0.006
		C73.005,73.359,73.281,72.848,72.921,72.653z"/>
	<path fill-rule="evenodd" clip-rule="evenodd" fill="#C45D44" d="M26.856,72.652c0.381-1.807,1.056-3.562,0.919-5.456
		c2.201,0.838,4.367,1.756,6.497,2.76c-2.129,0.532-4.052,1.597-6.086,2.374C27.754,72.496,27.368,72.825,26.856,72.652z"/>
	<path fill-rule="evenodd" clip-rule="evenodd" fill="#BDA170" d="M47.1,52.645c-1.284,0.022-2.241,0.765-3.178,1.499
		c-1.073,0.84-2.215,1.379-3.613,1.19c1.046-0.687,2.079-1.396,3.143-2.054C44.574,52.586,45.753,52.102,47.1,52.645z"/>
	<path fill-rule="evenodd" clip-rule="evenodd" fill="#47433C" d="M71.545,48.831c-0.768-0.289-0.59,0.316-0.654,0.692
		c-0.242,0.032-0.343-0.132-0.43-0.313c-0.165-0.87-0.569-1.74-0.014-2.613c0.24-0.291,0.483-0.583,0.727-0.874
		c0.36,0.854-0.003,1.819,0.404,2.666C71.567,48.536,71.557,48.684,71.545,48.831z"/>
	<path fill-rule="evenodd" clip-rule="evenodd" fill="#F7CEAC" d="M49.666,57.392c-1.877-0.012-3.722-0.21-5.449-1.013
		c-0.241-0.111-0.647-0.169-0.562-0.575c0.058-0.273,0.34-0.357,0.598-0.442c3.642-1.206,7.285-1.254,10.935-0.037
		c0.307,0.104,0.756,0.098,0.774,0.506c0.018,0.394-0.428,0.483-0.718,0.608C53.465,57.207,51.586,57.422,49.666,57.392z"/>
	<path fill-rule="evenodd" clip-rule="evenodd" fill="#88684F" d="M70.447,46.597c-0.149,0.916,0.273,1.782,0.229,2.688
		c-0.412,0.577-0.913,0.844-1.6,0.46c-0.596-0.377-0.836-1.007-1.13-1.598C68.875,47.784,69.73,47.302,70.447,46.597z"/>
	<path fill-rule="evenodd" clip-rule="evenodd" fill="#8E6F54" d="M69.076,49.745c0.624,0.159,1.048-0.372,1.6-0.46
		c0.07,0.08,0.143,0.159,0.215,0.238c0.005,0.37,0.009,0.743,0.014,1.114C70.155,50.624,69.541,50.336,69.076,49.745z"/>
	<path fill-rule="evenodd" clip-rule="evenodd" fill="#8F6C53" d="M82.351,59.071c-1.138-0.129-2.292-0.188-3.264-0.948
		c-0.881-0.69-0.882-0.989,0.07-1.497c2.162-1.154,4.289-1.145,6.436,0.09c0.763,0.438,0.619,0.802,0.09,1.25
		C84.724,58.782,83.542,58.951,82.351,59.071z"/>
</g>
</svg>
