<?xml version="1.0" encoding="utf-8"?>
<!-- Generator: Adobe Illustrator 16.0.0, SVG Export Plug-In . SVG Version: 6.00 Build 0)  -->
<!DOCTYPE svg PUBLIC "-//W3C//DTD SVG 1.1//EN" "http://www.w3.org/Graphics/SVG/1.1/DTD/svg11.dtd">
<svg version="1.1" id="Layer_1" xmlns="http://www.w3.org/2000/svg" xmlns:xlink="http://www.w3.org/1999/xlink" x="0px" y="0px"
	 width="100px" height="100px" viewBox="0 0 100 100" enable-background="new 0 0 100 100" xml:space="preserve">
<g>
	<path fill-rule="evenodd" clip-rule="evenodd" fill="#666666" d="M50.016,53.321c-6.618,0-13.236,0.004-19.854-0.005
		c-1.408-0.002-2.465-0.646-3.063-1.922c-0.589-1.258-0.4-2.467,0.479-3.537c0.65-0.792,1.523-1.169,2.548-1.173
		c1.659-0.006,3.317-0.001,4.976-0.001c11.56,0,23.12-0.001,34.68,0c1.925,0.001,3.405,1.375,3.457,3.195
		c0.055,1.891-1.413,3.43-3.318,3.437c-3.352,0.014-6.705,0.005-10.057,0.005C56.581,53.321,53.299,53.321,50.016,53.321z"/>
	<path fill-rule="evenodd" clip-rule="evenodd" fill="#666666" d="M49.954,66.595c-6.601,0-13.201,0.007-19.802-0.004
		c-1.407-0.002-2.463-0.652-3.056-1.932c-0.585-1.26-0.397-2.469,0.487-3.534c0.68-0.82,1.59-1.171,2.655-1.169
		c5.478,0.006,10.956,0.002,16.432,0.002c7.725,0,15.449-0.002,23.173,0.002c1.896,0.001,3.373,1.425,3.398,3.255
		c0.025,1.866-1.44,3.371-3.33,3.377c-3.87,0.012-7.74,0.003-11.611,0.004C55.519,66.596,52.735,66.596,49.954,66.595z"/>
	<path fill-rule="evenodd" clip-rule="evenodd" fill="#666666" d="M50.04,33.408c6.601,0,13.2-0.003,19.801,0.002
		c1.959,0.001,3.442,1.499,3.4,3.41c-0.04,1.698-1.426,3.13-3.12,3.22c-0.121,0.006-0.242,0.006-0.362,0.006
		c-13.149,0-26.298,0-39.447-0.001c-1.703,0-3.033-0.963-3.419-2.463c-0.545-2.117,0.996-4.146,3.191-4.169
		c2.004-0.02,4.009-0.005,6.013-0.005C40.744,33.408,45.392,33.408,50.04,33.408z"/>
</g>
</svg>
