<?xml version="1.0" encoding="utf-8"?>
<!-- Generator: Adobe Illustrator 16.0.0, SVG Export Plug-In . SVG Version: 6.00 Build 0)  -->
<!DOCTYPE svg PUBLIC "-//W3C//DTD SVG 1.1//EN" "http://www.w3.org/Graphics/SVG/1.1/DTD/svg11.dtd">
<svg version="1.1" id="Layer_1" xmlns="http://www.w3.org/2000/svg" xmlns:xlink="http://www.w3.org/1999/xlink" x="0px" y="0px"
	 width="100px" height="100px" viewBox="0 0 100 100" enable-background="new 0 0 100 100" xml:space="preserve">
<g>
	<path fill-rule="evenodd" clip-rule="evenodd" fill="#3C5866" d="M19.637,35.507C14.038,33.441,8.438,31.383,2.845,29.3
		C2.25,29.078,1.527,29.053,1.5,28.015c-0.028-1.116,0.751-1.157,1.393-1.394c15.17-5.568,30.348-11.117,45.513-16.698
		c0.841-0.31,1.559-0.304,2.388,0.001c15.209,5.593,30.428,11.162,45.645,16.739c0.64,0.235,1.275,0.349,1.243,1.363
		c-0.029,0.944-0.646,1.022-1.22,1.235c-5.641,2.087-11.285,4.162-16.93,6.24c-1.163,1.087-2.584,1.503-4.134,1.586
		c-0.275-0.105-0.485-0.3-0.698-0.489c-6.911-2.875-13.918-5.511-20.86-8.302c-0.812-0.325-1.704-0.509-2.347-1.176
		c-0.574-1.27-1.42-1.779-2.454-1.443c-0.552,0.18-1.062,0.482-1.104,1.123c-0.04,0.604,0.428,0.884,0.926,1.084
		c0.216,0.087,0.449,0.12,0.672,0.192c7.21,2.841,14.493,5.491,21.72,8.282c0.686,0.265,1.435,0.426,1.917,1.063
		c0.085,0.219,0.074,0.435-0.036,0.642c-1.8,1.106-3.854,1.592-5.805,2.318c-5.402,2.015-10.829,3.964-16.232,5.977
		c-1.016,0.377-1.958,0.397-2.976,0.013c-8.881-3.333-17.807-6.549-26.711-9.819C20.754,36.311,20.079,36.107,19.637,35.507z"/>
	<path fill-rule="evenodd" clip-rule="evenodd" fill="#3B5361" d="M49.593,66.457c-10.288-0.068-19.779-2.605-27.901-9.195
		c-2.556-2.074-3.9-4.654-3.23-8.189c0.507-2.67,0.467-5.445,0.691-8.173c0.057-0.691,0.195-1.373,0.297-2.06
		c0.684-0.526,1.348-0.133,1.974,0.1c6.916,2.571,13.858,5.065,20.784,7.608c1.917,0.703,3.845,1.374,5.741,2.135
		c0.689,0.277,1.39,0.544,1.811,1.229c0.274,0.51,0.326,1.064,0.33,1.625c0.027,4.41,0.021,8.822,0.002,13.234
		C50.09,65.373,50.085,65.992,49.593,66.457z"/>
	<path fill-rule="evenodd" clip-rule="evenodd" fill="#324C5A" d="M49.593,66.457c0-4.988-0.002-9.979-0.002-14.967
		c0-0.598,0.054-1.207-0.279-1.75c0.29-0.557,0.861-0.67,1.377-0.86c6.404-2.361,12.819-4.686,19.233-7.023
		c1.027-0.375,2.062-1.203,3.282-0.477c0.304,0.451,0.303,0.97,0.305,1.481c0.013,2.232-0.001,4.465,0.006,6.7
		c0.004,0.934-0.298,1.683-0.966,2.369c-1.563,1.609-1.586,2.641-0.231,4.391c1.126,1.449,0.814,3.658-0.695,4.912
		c-6.369,3.172-13.115,4.898-20.218,5.244C50.803,66.506,50.197,66.465,49.593,66.457z"/>
	<path fill-rule="evenodd" clip-rule="evenodd" fill="#2C4350" d="M73.011,41.354c-3.077,0.727-5.952,2.038-8.917,3.092
		c-4.931,1.752-9.854,3.528-14.782,5.294c-3.501-1.604-7.184-2.73-10.776-4.093c-5.672-2.149-11.386-4.186-17.088-6.255
		c-0.647-0.235-1.331-0.371-1.998-0.553c0.048-1.113-0.268-2.245,0.187-3.333c4.837,1.754,9.678,3.498,14.511,5.262
		c4.88,1.783,9.76,3.569,14.621,5.401c0.854,0.323,1.537,0.031,2.27-0.236c7.011-2.574,14.02-5.153,21.032-7.721
		c0.299-0.109,0.627-0.137,0.941-0.204C73.799,39.126,73.803,40.24,73.011,41.354z"/>
	<path fill-rule="evenodd" clip-rule="evenodd" fill="#EDC74B" d="M73.011,41.354c0.001-1.114,0.002-2.229,0.002-3.344
		c0.008-0.182,0.014-0.365,0.019-0.547c0.397-0.811,1.031-1.209,1.947-1.115c0.329,0.041,0.283,0.332,0.356,0.541
		c0.502,0.589,0.423,1.306,0.426,1.996c0.011,3.347,0.021,6.693-0.007,10.039c-0.007,1.029,0.256,1.855,0.986,2.634
		c1.639,1.746,1.606,3.566-0.001,5.32c-0.568,0.621-1.121,1.234-1.415,2.039c-0.045,2.105,0.621,4.1,0.979,6.283
		c-1.799-0.398-3.339-1.35-5.02-1.885c-0.453-0.146-0.287-0.486-0.158-0.797c0.178-0.422,0.333-0.857,0.497-1.287
		c0.219-0.611,0.407-1.238,0.66-1.832c0.5-1.191,0.538-2.094-0.619-3.119c-1.482-1.314-1.072-3.572,0.659-4.814
		c0.502-0.361,0.764-0.671,0.753-1.316C73.026,47.22,73.027,44.288,73.011,41.354z"/>
	<path fill-rule="evenodd" clip-rule="evenodd" fill="#324B59" d="M75.324,58.918c-0.151-0.857-0.073-1.477,0.813-2.08
		c1.93-1.316,1.861-3.869-0.021-5.318c-0.444-0.346-0.851-0.558-0.843-1.263c0.054-4.455,0.049-8.913,0.061-13.367
		c1.399-0.462,2.798-0.925,4.196-1.388c0.438,5.322,0.891,10.644,1.305,15.965c0.098,1.266-0.491,2.354-1.194,3.35
		C78.477,56.463,77.004,57.803,75.324,58.918z"/>
	<path fill-rule="evenodd" clip-rule="evenodd" fill="#EDCB5E" d="M74.979,36.349c-0.649,0.372-1.299,0.743-1.947,1.115
		c-7.488-2.833-14.977-5.662-22.46-8.506c-0.463-0.176-1-0.257-1.313-0.721c-0.349-0.825,0.012-1.53,0.625-1.932
		c0.598-0.391,1.24-0.095,1.623,0.562c7.204,2.866,14.412,5.729,21.61,8.609C73.751,35.729,74.466,35.83,74.979,36.349z"/>
	<path fill-rule="evenodd" clip-rule="evenodd" fill="#2E4450" d="M51.506,26.867c-1.587-0.92-1.916,0.225-2.248,1.37
		c-1,0.31-1.496-0.402-1.804-1.087c-0.357-0.796,0.342-1.27,0.919-1.645c0.809-0.523,1.694-0.528,2.467,0.035
		C51.232,25.826,52.048,26.05,51.506,26.867z"/>
</g>
<text transform="matrix(1 0.0015 -0.0015 1 3.6782 93.3584)" fill="#EDC74B" font-family="'FuturaLH-ExtraBold'" font-size="18.8515">GOSTUDY</text>
</svg>
