<?xml version="1.0" encoding="utf-8"?>
<!-- Generator: Adobe Illustrator 16.0.0, SVG Export Plug-In . SVG Version: 6.00 Build 0)  -->
<!DOCTYPE svg PUBLIC "-//W3C//DTD SVG 1.1//EN" "http://www.w3.org/Graphics/SVG/1.1/DTD/svg11.dtd">
<svg version="1.1" id="Layer_1" xmlns="http://www.w3.org/2000/svg" xmlns:xlink="http://www.w3.org/1999/xlink" x="0px" y="0px"
	 width="100px" height="100px" viewBox="0 0 100 100" enable-background="new 0 0 100 100" xml:space="preserve">
<g>
	<path fill-rule="evenodd" clip-rule="evenodd" fill="#FFFFFF" d="M49.663,33.801c12.283,0,24.566,0.038,36.849-0.039
		c1.901-0.012,2.578,0.438,2.568,2.473c-0.078,16.852-0.033,33.706-0.051,50.561c-0.005,4.982-2.732,7.725-7.661,7.727
		c-21.065,0.012-42.131,0.008-63.198,0c-4.762-0.002-7.728-2.547-7.759-7.236c-0.115-17.281-0.04-34.564-0.083-51.845
		c-0.006-1.813,1.107-1.643,2.272-1.643C24.955,33.803,37.309,33.801,49.663,33.801z M65.987,82.201
		c0-1.852-0.043-3.703,0.013-5.553c0.037-1.244-0.394-1.828-1.712-1.812c-3.701,0.047-7.403,0.041-11.105,0
		c-1.246-0.01-1.822,0.434-1.808,1.736c0.038,3.699,0.029,7.404,0.004,11.105c-0.008,1.139,0.422,1.719,1.62,1.709
		c3.774-0.02,7.548-0.033,11.32,0.008c1.346,0.016,1.713-0.645,1.679-1.855C65.948,85.76,65.987,83.98,65.987,82.201z
		 M65.982,64.156c0-1.854-0.029-3.707,0.012-5.555c0.024-1.17-0.449-1.686-1.636-1.678c-3.775,0.027-7.549,0.023-11.322,0
		c-1.177-0.008-1.665,0.512-1.657,1.674c0.027,3.773-0.046,7.551,0.084,11.32c0.018,0.531,0.938,1.461,1.467,1.477
		c3.841,0.129,7.689,0.127,11.528-0.002c0.522-0.016,1.399-0.92,1.453-1.479C66.093,68.01,65.98,66.076,65.982,64.156z
		 M69.362,46.159c0,1.852,0.029,3.704-0.013,5.556c-0.028,1.195,0.313,1.867,1.679,1.848c3.773-0.049,7.551,0.039,11.319-0.086
		c0.529-0.018,1.452-0.926,1.468-1.445c0.125-3.842,0.126-7.692,0-11.534c-0.016-0.526-0.938-1.445-1.465-1.463
		c-3.771-0.129-7.548-0.056-11.322-0.083c-1.168-0.009-1.691,0.478-1.67,1.653C69.39,42.455,69.365,44.307,69.362,46.159z
		 M65.987,46.417c0-1.855-0.053-3.71,0.016-5.563c0.05-1.366-0.467-1.931-1.86-1.912c-3.639,0.052-7.276,0.052-10.914-0.001
		c-1.407-0.02-1.877,0.585-1.859,1.929c0.046,3.637,0.04,7.275,0.006,10.914c-0.013,1.258,0.471,1.797,1.766,1.779
		c3.709-0.045,7.418-0.045,11.127,0c1.315,0.018,1.771-0.541,1.73-1.797C65.944,49.984,65.984,48.2,65.987,46.417z M30.112,46.167
		c0-1.851-0.027-3.703,0.011-5.552c0.024-1.163-0.442-1.677-1.635-1.667c-3.772,0.034-7.546-0.044-11.313,0.084
		c-0.523,0.017-1.438,0.934-1.456,1.457c-0.125,3.839-0.124,7.686,0,11.526c0.017,0.523,0.921,1.441,1.438,1.461
		c3.768,0.125,7.542,0.047,11.314,0.084c1.178,0.012,1.68-0.443,1.654-1.631C30.082,50.01,30.112,48.088,30.112,46.167z M48,64.312
		c0-1.781-0.058-3.564,0.018-5.344c0.061-1.42-0.382-2.094-1.924-2.064c-3.562,0.074-7.127,0.057-10.69,0.004
		c-1.345-0.018-1.944,0.439-1.923,1.85c0.055,3.633,0.04,7.271,0.004,10.904c-0.012,1.221,0.365,1.84,1.707,1.82
		c3.706-0.051,7.413-0.045,11.118,0c1.336,0.018,1.735-0.6,1.701-1.826C47.96,67.877,47.998,66.096,48,64.312z M76.582,71.465
		c1.927,0,3.865,0.109,5.774-0.072c0.551-0.053,1.443-0.936,1.459-1.461c0.125-3.85,0.116-7.705,0.003-11.553
		c-0.015-0.492-0.865-1.359-1.35-1.373c-3.85-0.115-7.706-0.129-11.553-0.002c-0.531,0.018-1.46,0.945-1.478,1.48
		c-0.131,3.777-0.055,7.561-0.082,11.338c-0.009,1.178,0.478,1.684,1.662,1.656C72.873,71.432,74.729,71.467,76.582,71.465z
		 M15.65,82.154c0,1.854,0.036,3.709-0.013,5.561c-0.032,1.168,0.413,1.688,1.615,1.676c3.778-0.031,7.558,0.049,11.332-0.078
		c0.523-0.02,1.438-0.947,1.456-1.479c0.125-3.846,0.117-7.697,0.005-11.543c-0.014-0.488-0.857-1.355-1.335-1.369
		c-3.846-0.113-7.698-0.123-11.543,0.002c-0.521,0.018-1.395,0.912-1.447,1.463C15.542,78.295,15.652,80.229,15.65,82.154z
		 M33.502,81.879c0,1.924,0.035,3.848-0.012,5.771c-0.032,1.293,0.537,1.762,1.798,1.746c3.632-0.039,7.267-0.037,10.9,0
		c1.228,0.014,1.839-0.389,1.823-1.715c-0.043-3.705-0.046-7.412,0.003-11.117c0.017-1.316-0.55-1.744-1.798-1.73
		c-3.633,0.043-7.268,0.057-10.901-0.004c-1.428-0.025-1.883,0.582-1.833,1.918C33.546,78.457,33.498,80.168,33.502,81.879z
		 M83.888,82.055c0-1.852-0.036-3.709,0.013-5.561c0.031-1.191-0.467-1.664-1.646-1.654c-3.778,0.035-7.56-0.045-11.335,0.084
		c-0.533,0.018-1.464,0.938-1.481,1.463c-0.128,3.846-0.117,7.701,0,11.549c0.014,0.492,0.879,1.359,1.368,1.375
		c3.848,0.113,7.704,0.123,11.55-0.004c0.524-0.016,1.405-0.924,1.457-1.479C83.997,85.918,83.884,83.98,83.888,82.055z
		 M40.485,53.547c1.928,0,3.857-0.045,5.782,0.016c1.31,0.043,1.761-0.521,1.747-1.785c-0.044-3.711-0.037-7.425-0.007-11.138
		c0.01-1.166-0.446-1.693-1.638-1.686c-3.713,0.026-7.427,0.037-11.139-0.009c-1.31-0.016-1.756,0.556-1.743,1.807
		c0.039,3.712,0.035,7.426,0.005,11.139c-0.009,1.162,0.434,1.699,1.639,1.666C36.913,53.51,38.7,53.547,40.485,53.547z
		 M15.649,64.133c0,1.854,0.043,3.709-0.017,5.561c-0.041,1.254,0.397,1.811,1.715,1.791c3.707-0.049,7.415-0.041,11.121-0.004
		c1.184,0.01,1.663-0.457,1.653-1.641c-0.033-3.779-0.032-7.557-0.002-11.336c0.011-1.234-0.595-1.594-1.721-1.584
		c-3.706,0.029-7.414,0.031-11.12,0.002c-1.177-0.012-1.678,0.453-1.643,1.648C15.689,60.424,15.65,62.279,15.649,64.133z"/>
	<path fill-rule="evenodd" clip-rule="evenodd" fill="#FFFFFF" d="M49.565,30.027c-12.207,0.001-24.414-0.044-36.62,0.044
		c-2.067,0.016-2.833-0.594-2.625-2.655c0.17-1.699-0.02-3.435,0.174-5.128c0.446-3.883,3.159-6.312,7.057-6.385
		c3.211-0.061,6.426-0.068,9.636,0.004c1.462,0.033,2.084-0.456,2.009-1.968c-0.088-1.78-0.045-3.569-0.007-5.354
		c0.046-2.217,1.054-3.513,2.688-3.382c2.025,0.161,2.514,1.556,2.49,3.323c-0.025,1.856,0.038,3.714-0.011,5.568
		c-0.033,1.229,0.36,1.811,1.706,1.807c9.066-0.038,18.132-0.039,27.197,0.001c1.433,0.006,1.869-0.595,1.827-1.928
		c-0.062-1.926-0.024-3.854-0.005-5.783c0.02-1.733,0.756-2.992,2.62-2.97c1.874,0.023,2.533,1.297,2.513,3.042
		c-0.021,1.928,0.053,3.857-0.015,5.782c-0.05,1.403,0.529,1.884,1.9,1.857c3.141-0.062,6.28-0.038,9.422-0.011
		c4.634,0.039,7.445,2.849,7.51,7.483c0.021,1.428-0.105,2.866,0.033,4.28c0.187,1.929-0.615,2.417-2.45,2.406
		C74.265,29.995,61.913,30.027,49.565,30.027z M65.081,18.444c-2.633,1.853-3.371,4.024-2.566,6.304
		c0.792,2.25,3.156,3.839,5.466,3.679c2.477-0.171,4.503-1.992,5.021-4.51c0.442-2.149-0.49-4.14-2.797-5.27
		c0,1.428-0.003,2.668,0,3.909c0.007,1.638-0.627,2.848-2.396,2.92c-1.865,0.074-2.67-1.099-2.722-2.844
		C65.052,21.389,65.081,20.144,65.081,18.444z M29.188,18.534c-2.568,1.709-3.288,3.92-2.464,6.266
		c0.799,2.274,3.151,3.823,5.492,3.616c2.484-0.217,4.593-2.159,4.985-4.587c0.362-2.237-0.624-4.176-2.844-5.094
		c0,1.319-0.002,2.512,0.001,3.704c0.003,1.716-0.615,3.014-2.523,3.038c-1.901,0.025-2.569-1.284-2.638-2.97
		C29.15,21.328,29.188,20.144,29.188,18.534z"/>
</g>
</svg>
