<?xml version="1.0" encoding="utf-8"?>
<!-- Generator: Adobe Illustrator 16.0.0, SVG Export Plug-In . SVG Version: 6.00 Build 0)  -->
<!DOCTYPE svg PUBLIC "-//W3C//DTD SVG 1.1//EN" "http://www.w3.org/Graphics/SVG/1.1/DTD/svg11.dtd">
<svg version="1.1" id="Layer_1" xmlns="http://www.w3.org/2000/svg" xmlns:xlink="http://www.w3.org/1999/xlink" x="0px" y="0px"
	 width="100px" height="100px" viewBox="0 0 100 100" enable-background="new 0 0 100 100" xml:space="preserve">
<g>
	<path fill="#FFFFFF" d="M10.365,90.028c26.524,0.04,52.844,0.08,79.149,0.119c0.703-11.783-3.529-18.965-13.992-23.564
		c-4.54-1.995-9.266-3.513-13.803-5.519c-3.373-1.489-4.194-5.086-2.33-8.427c4.213-7.554,6.25-15.798,6.221-24.544
		c-0.032-9.573-4.024-14.754-12.257-16.164c-2.137-0.366-4.385-0.351-6.548-0.12c-7.382,0.788-11.51,4.837-12.492,12.706
		c-1.291,10.354,1.268,19.874,6.122,28.812c0.622,1.146,1.25,3.038,0.785,3.95c-0.834,1.639-2.279,3.334-3.851,4.048
		c-4.598,2.095-9.468,3.503-14.078,5.573C13.843,71.137,9.688,78.709,10.365,90.028z M64.152,11.052
		c1.705,4.065,4.116,7.822,4.841,11.921c1.862,10.535-0.575,20.522-5.101,29.944c-1.84,3.831-1.923,3.815,2.008,5.296
		c7.206,2.712,14.601,4.978,20.763,10.146c0.329,0.275,0.83,0.439,1.254,0.443c3.806,0.039,7.613,0.031,11.382,0.036
		c0.797-7.361-1.877-13.254-7.677-16.206c-3.929-2-8.125-3.393-12.182-5.113c-3.419-1.45-4.132-3.742-2.344-7.097
		c3.048-5.722,4.592-11.892,4.424-18.474c-0.106-4.153-1.104-8.083-4.857-10.162C72.419,9.433,67.974,9.496,64.152,11.052z
		 M36.589,10.804c-3.053-0.259-5.76-0.888-8.393-0.634c-6.357,0.615-9.103,3.494-9.859,10.333c-0.787,7.12,1.012,13.752,4.25,19.927
		c1.97,3.76,1.484,5.529-2.299,7.068c-3.915,1.592-7.947,2.902-11.738,4.78c-5.873,2.91-8.693,8.973-7.905,16.405
		c3.771,0.006,7.583,0.027,11.393-0.007c0.413-0.002,0.888-0.236,1.222-0.518c5.417-4.561,11.804-6.874,18.231-9.114
		c1.956-0.682,3.868-1.513,5.894-2.314c-1.375-3.032-2.872-5.634-3.774-8.455C29.573,35.626,26.574,22.985,36.589,10.804z"/>
	<path fill-rule="evenodd" clip-rule="evenodd" d="M10.365,90.028c-0.677-11.319,3.478-18.892,12.927-23.131
		c4.609-2.07,9.479-3.479,14.078-5.573c1.571-0.714,3.016-2.409,3.851-4.048c0.465-0.912-0.163-2.804-0.785-3.95
		c-4.854-8.938-7.413-18.457-6.122-28.812c0.981-7.869,5.11-11.917,12.492-12.706c2.163-0.23,4.411-0.246,6.548,0.12
		c8.232,1.41,12.225,6.591,12.257,16.164c0.029,8.747-2.008,16.99-6.221,24.544c-1.864,3.341-1.043,6.938,2.33,8.427
		c4.537,2.006,9.263,3.523,13.803,5.519c10.463,4.6,14.695,11.781,13.992,23.564C63.209,90.108,36.89,90.068,10.365,90.028z"/>
	<path fill-rule="evenodd" clip-rule="evenodd" d="M64.152,11.052c3.821-1.557,8.267-1.62,12.511,0.733
		c3.753,2.079,4.751,6.009,4.857,10.162c0.168,6.582-1.376,12.752-4.424,18.474c-1.788,3.355-1.075,5.647,2.344,7.097
		c4.057,1.721,8.253,3.113,12.182,5.113c5.8,2.952,8.474,8.845,7.677,16.206c-3.769-0.005-7.576,0.003-11.382-0.036
		c-0.424-0.004-0.925-0.168-1.254-0.443C80.501,63.19,73.106,60.925,65.9,58.213c-3.931-1.48-3.848-1.465-2.008-5.296
		c4.525-9.421,6.963-19.409,5.101-29.944C68.269,18.875,65.857,15.117,64.152,11.052z"/>
	<path fill-rule="evenodd" clip-rule="evenodd" d="M36.589,10.804c-10.015,12.181-7.016,24.823-2.979,37.471
		c0.902,2.821,2.4,5.423,3.774,8.455c-2.026,0.802-3.938,1.633-5.894,2.314c-6.427,2.24-12.814,4.554-18.231,9.114
		c-0.333,0.281-0.809,0.516-1.222,0.518c-3.81,0.034-7.621,0.013-11.393,0.007c-0.789-7.433,2.032-13.495,7.905-16.405
		c3.791-1.878,7.823-3.188,11.738-4.78c3.783-1.539,4.269-3.308,2.299-7.068c-3.238-6.175-5.037-12.807-4.25-19.927
		c0.757-6.838,3.502-9.717,9.859-10.333C30.829,9.916,33.536,10.544,36.589,10.804z"/>
</g>
</svg>
