<?xml version="1.0" encoding="utf-8"?>
<!-- Generator: Adobe Illustrator 16.0.0, SVG Export Plug-In . SVG Version: 6.00 Build 0)  -->
<!DOCTYPE svg PUBLIC "-//W3C//DTD SVG 1.1//EN" "http://www.w3.org/Graphics/SVG/1.1/DTD/svg11.dtd">
<svg version="1.1" id="Layer_1" xmlns="http://www.w3.org/2000/svg" xmlns:xlink="http://www.w3.org/1999/xlink" x="0px" y="0px"
	 width="100px" height="100px" viewBox="0 0 100 100" enable-background="new 0 0 100 100" xml:space="preserve">
<g>
	<path fill="#FFFFFF" d="M59.767,16.003c0,6.711,0,13.35,0,20.004c1.924,0,3.74,0,5.569,0c0.021-0.224,0.047-0.369,0.047-0.516
		c0.001-7.398,0.009-14.796-0.007-22.194c-0.004-1.925-1.186-3.011-3.193-3.011c-16.43-0.001-32.859-0.001-49.29,0.002
		c-2.038,0-3.182,1.165-3.182,3.222c0,19.49,0.023,38.98-0.033,58.471c-0.006,2.078,0.45,3.613,2.546,4.335
		c0.248,0.085,0.465,0.261,0.696,0.393c7.332,4.157,14.662,8.318,21.997,12.47c2.37,1.342,4.56,0.062,4.564-2.656
		c0.005-3.12-0.001-6.239-0.002-9.359c0-0.313,0-0.627,0-0.988c0.518,0,0.902,0,1.287,0c7.071,0,14.143,0.001,21.214-0.001
		c2.388-0.001,3.4-1.024,3.401-3.43c0.002-5.585,0.001-11.171,0.001-16.756c0-0.322,0-0.645,0-1.017c-1.909,0-3.73,0-5.651,0
		c0,5.194,0,10.32,0,15.48c-6.793,0-13.488,0-20.25,0c0-0.38,0-0.702,0-1.024c0-14.054-0.012-28.106,0.018-42.159
		c0.003-1.545-0.582-2.562-1.926-3.31c-4.306-2.394-8.579-4.846-12.863-7.276c-0.319-0.182-0.629-0.38-1.122-0.679
		C35.742,16.003,47.672,16.003,59.767,16.003z M71.269,49.472c0,2.435,0.005,4.748-0.002,7.062
		c-0.003,0.764,0.202,1.417,0.912,1.803c0.754,0.41,1.415,0.173,2.064-0.3c5.041-3.672,10.094-7.33,15.134-11.003
		c1.262-0.92,1.261-2.147-0.001-3.066c-5.042-3.672-10.094-7.329-15.136-11c-0.652-0.476-1.324-0.682-2.071-0.291
		c-0.723,0.377-0.904,1.044-0.902,1.804c0.006,2.051,0.001,4.101-0.004,6.151c0,0.283-0.023,0.566-0.039,0.896
		c-0.403,0-0.698,0-0.993,0c-4.605,0.001-9.211-0.006-13.816,0.006c-2.45,0.006-4.258,1.719-4.244,3.98
		c0.015,2.27,1.816,3.945,4.271,3.957c2.109,0.009,4.219,0.002,6.329,0.002C65.558,49.472,68.346,49.472,71.269,49.472z"/>
	<path fill-rule="evenodd" clip-rule="evenodd" d="M59.767,16.003c-12.095,0-24.024,0-36.179,0c0.493,0.299,0.803,0.497,1.122,0.679
		c4.284,2.431,8.558,4.883,12.863,7.276c1.344,0.747,1.929,1.765,1.926,3.31c-0.029,14.053-0.018,28.105-0.018,42.159
		c0,0.322,0,0.645,0,1.024c6.762,0,13.457,0,20.25,0c0-5.16,0-10.286,0-15.48c1.921,0,3.742,0,5.651,0c0,0.372,0,0.694,0,1.017
		c0,5.585,0.001,11.171-0.001,16.756c-0.001,2.405-1.014,3.429-3.401,3.43c-7.071,0.002-14.143,0.001-21.214,0.001
		c-0.385,0-0.77,0-1.287,0c0,0.361,0,0.675,0,0.988c0.001,3.12,0.007,6.239,0.002,9.359c-0.005,2.719-2.194,3.998-4.564,2.656
		c-7.335-4.151-14.665-8.312-21.997-12.47c-0.231-0.132-0.448-0.308-0.696-0.393c-2.096-0.722-2.552-2.257-2.546-4.335
		C9.734,52.49,9.711,33,9.711,13.51c0-2.057,1.144-3.222,3.182-3.222c16.431-0.003,32.86-0.003,49.29-0.002
		c2.008,0,3.189,1.086,3.193,3.011c0.016,7.398,0.008,14.796,0.007,22.194c0,0.146-0.025,0.292-0.047,0.516
		c-1.829,0-3.646,0-5.569,0C59.767,29.353,59.767,22.714,59.767,16.003z"/>
	<path fill-rule="evenodd" clip-rule="evenodd" d="M71.269,49.472c-2.923,0-5.711,0-8.499,0c-2.11,0-4.22,0.007-6.329-0.002
		c-2.454-0.012-4.256-1.688-4.271-3.957c-0.014-2.262,1.794-3.975,4.244-3.98c4.605-0.012,9.211-0.005,13.816-0.006
		c0.295,0,0.59,0,0.993,0c0.016-0.329,0.039-0.612,0.039-0.896c0.005-2.051,0.01-4.101,0.004-6.151
		c-0.002-0.76,0.18-1.427,0.902-1.804c0.747-0.391,1.419-0.185,2.071,0.291c5.042,3.671,10.094,7.328,15.136,11
		c1.262,0.919,1.263,2.146,0.001,3.066c-5.04,3.673-10.093,7.331-15.134,11.003c-0.649,0.473-1.311,0.71-2.064,0.3
		c-0.71-0.386-0.915-1.039-0.912-1.803C71.273,54.22,71.269,51.906,71.269,49.472z"/>
</g>
</svg>
