<?xml version="1.0" encoding="utf-8"?>
<!-- Generator: Adobe Illustrator 16.0.0, SVG Export Plug-In . SVG Version: 6.00 Build 0)  -->
<!DOCTYPE svg PUBLIC "-//W3C//DTD SVG 1.1//EN" "http://www.w3.org/Graphics/SVG/1.1/DTD/svg11.dtd">
<svg version="1.1" id="Layer_1" xmlns="http://www.w3.org/2000/svg" xmlns:xlink="http://www.w3.org/1999/xlink" x="0px" y="0px"
	 width="100px" height="100px" viewBox="0 0 100 100" enable-background="new 0 0 100 100" xml:space="preserve">
<g>
	<path fill-rule="evenodd" clip-rule="evenodd" d="M97.201,65.331c-0.06,0.139-0.141,0.271-0.172,0.415
		c-0.953,4.353-4.484,7.226-8.938,7.228c-12.117,0.008-24.235,0.009-36.354-0.013c-0.739-0.001-1.255,0.198-1.783,0.729
		c-6.309,6.346-12.648,12.663-18.966,19.001c-0.845,0.848-1.782,1.357-2.996,1.112c-1.482-0.3-2.395-1.49-2.397-3.115
		c-0.007-5.531-0.003-11.062-0.003-16.593c0-0.336,0-0.672,0-1.119c-0.397,0-0.728,0-1.058,0c-4.443,0-8.886,0.005-13.33-0.001
		C6.292,72.969,3,70.351,1.861,65.565c-0.02-0.085-0.092-0.156-0.14-0.234c0-17.778,0-35.556,0-53.334
		c0.062-0.167,0.146-0.33,0.185-0.502c0.94-4.231,4.491-7.136,8.827-7.138c25.849-0.01,51.7-0.01,77.549-0.003
		c3.857,0.001,7.264,2.499,8.47,6.147c0.163,0.495,0.3,0.998,0.449,1.497C97.201,29.775,97.201,47.553,97.201,65.331z
		 M31.536,83.649c0.426-0.404,0.672-0.628,0.907-0.863c4.989-4.986,9.985-9.968,14.956-14.973c0.56-0.564,1.112-0.826,1.932-0.824
		c12.834,0.028,25.67,0.021,38.504,0.019c2.214,0,3.397-1.181,3.398-3.392c0.001-16.625,0.001-33.251-0.001-49.878
		c0-2.278-1.157-3.419-3.457-3.419c-25.576,0-51.152,0.001-76.729,0.003c-2.169,0-3.353,1.174-3.353,3.328
		C7.69,30.308,7.689,46.965,7.69,63.623c0,2.217,1.163,3.379,3.396,3.381c6.029,0.006,12.058,0.003,18.087,0.003
		c0.769,0,1.537,0,2.363,0C31.536,72.535,31.536,77.964,31.536,83.649z"/>
	<path fill-rule="evenodd" clip-rule="evenodd" fill="#FFFFFF" d="M49.454,19.27c0-0.001,0-0.003,0-0.004
		c-5.653,0-11.306,0-16.959,0.001c-4.287,0-8.573-0.011-12.859,0.01c-1.58,0.008-2.821,1.153-2.982,2.657
		c-0.161,1.504,0.851,2.92,2.351,3.23c0.419,0.087,0.865,0.07,1.298,0.07c13.138,0.004,26.277,0.005,39.415,0.005
		c6.461,0,12.921-0.005,19.381-0.001c1.387,0.001,2.41-0.591,2.953-1.863c0.862-2.018-0.647-4.1-2.967-4.102
		C69.208,19.265,59.331,19.27,49.454,19.27z M49.514,31.205c0-0.001,0-0.002,0-0.004c-5.87,0-11.741,0-17.611,0.001
		c-4.1,0-8.2-0.013-12.3,0.014c-1.572,0.009-2.808,1.181-2.95,2.688c-0.143,1.511,0.878,2.903,2.385,3.203
		c0.391,0.078,0.803,0.064,1.206,0.064c14.164,0.004,28.327,0.005,42.491,0.006c5.436,0,10.871-0.009,16.306,0.001
		c1.381,0.002,2.42-0.544,2.987-1.812c0.917-2.047-0.596-4.155-2.976-4.157C69.206,31.201,59.359,31.205,49.514,31.205z
		 M34.448,49.107c4.905,0,9.81,0.003,14.715-0.002c1.955-0.002,3.305-1.257,3.28-3.027c-0.023-1.725-1.373-2.939-3.275-2.939
		c-9.717-0.002-19.434-0.002-29.152-0.002c-1.989,0-3.346,1.182-3.375,2.936c-0.03,1.792,1.337,3.031,3.371,3.032
		C24.823,49.11,29.636,49.107,34.448,49.107z"/>
	<path fill-rule="evenodd" clip-rule="evenodd" d="M49.454,19.27c9.877,0,19.754-0.005,29.632,0.003
		c2.319,0.002,3.829,2.084,2.967,4.102c-0.543,1.272-1.566,1.864-2.953,1.863c-6.46-0.004-12.92,0.001-19.381,0.001
		c-13.138,0-26.277-0.001-39.415-0.005c-0.434,0-0.879,0.018-1.298-0.07c-1.5-0.31-2.512-1.726-2.351-3.23
		c0.161-1.504,1.402-2.649,2.982-2.657c4.286-0.021,8.572-0.01,12.859-0.01c5.653-0.001,11.306-0.001,16.959-0.001
		C49.454,19.267,49.454,19.269,49.454,19.27z"/>
	<path fill-rule="evenodd" clip-rule="evenodd" d="M49.514,31.205c9.846,0,19.692-0.004,29.538,0.003
		c2.38,0.002,3.893,2.109,2.976,4.157c-0.567,1.267-1.606,1.813-2.987,1.812c-5.435-0.01-10.87-0.001-16.306-0.001
		c-14.164-0.001-28.327-0.002-42.491-0.006c-0.403,0-0.815,0.014-1.206-0.064c-1.507-0.3-2.528-1.691-2.385-3.203
		c0.142-1.506,1.378-2.678,2.95-2.688c4.1-0.027,8.2-0.014,12.3-0.014c5.871-0.001,11.741-0.001,17.611-0.001
		C49.514,31.203,49.514,31.204,49.514,31.205z"/>
	<path fill-rule="evenodd" clip-rule="evenodd" d="M34.448,49.107c-4.812,0-9.625,0.003-14.437-0.002
		c-2.033-0.001-3.401-1.241-3.371-3.032c0.03-1.754,1.386-2.936,3.375-2.936c9.718,0,19.435,0,29.152,0.002
		c1.902,0,3.252,1.215,3.275,2.939c0.024,1.77-1.325,3.025-3.28,3.027C44.258,49.11,39.353,49.107,34.448,49.107z"/>
</g>
</svg>
