<?xml version="1.0" encoding="utf-8"?>
<!-- Generator: Adobe Illustrator 16.0.0, SVG Export Plug-In . SVG Version: 6.00 Build 0)  -->
<!DOCTYPE svg PUBLIC "-//W3C//DTD SVG 1.1//EN" "http://www.w3.org/Graphics/SVG/1.1/DTD/svg11.dtd">
<svg version="1.1" id="Layer_1" xmlns="http://www.w3.org/2000/svg" xmlns:xlink="http://www.w3.org/1999/xlink" x="0px" y="0px"
	 width="100px" height="100px" viewBox="0 0 100 100" enable-background="new 0 0 100 100" xml:space="preserve">
<g>
	<path fill="#FFFFFF" d="M70.25,30.688c-0.106-2.337-0.098-4.686-0.345-7.007c-0.786-7.416-4.872-12.211-12.048-14.126
		c-4.977-1.327-10.021-1.375-15.027-0.201c-8.146,1.912-12.396,6.593-13.099,14.896c-0.33,3.889-0.173,7.861,0.182,11.757
		c0.749,8.216,2.698,16.143,7.882,22.789c1.672,2.143,2.423,3.968,1.217,6.45c-0.628,1.291-0.178,2.147,1.058,2.953
		c5.915,3.854,13.663,3.899,19.414-0.111c0.591-0.413,1.309-1.574,1.115-2.026c-1.408-3.305-0.362-5.833,1.934-8.285
		c1.056-1.128,1.727-2.651,2.434-4.064C68.599,46.473,69.789,38.676,70.25,30.688z M0.644,90.979
		c32.728,0.068,65.374,0.139,98.577,0.208c-0.788-1.997-1.16-3.928-2.211-5.368c-1.538-2.11-3.367-4.114-5.413-5.732
		c-6.163-4.875-13.282-8.047-20.572-10.817c-0.593-0.226-1.742,0.188-2.252,0.69c-11.115,10.992-27.011,10.979-38.019-0.146
		c-0.91-0.919-1.629-1.046-2.758-0.536c-2.614,1.179-5.337,2.125-7.913,3.378C14.232,75.504,8.42,78.457,3.986,83.427
		C2.101,85.542,0.595,87.861,0.644,90.979z"/>
	<path fill-rule="evenodd" clip-rule="evenodd" d="M70.25,30.688c-0.461,7.988-1.651,15.785-5.283,23.024
		c-0.707,1.413-1.378,2.937-2.434,4.064c-2.296,2.452-3.342,4.98-1.934,8.285c0.193,0.452-0.524,1.613-1.115,2.026
		c-5.751,4.011-13.5,3.966-19.414,0.111c-1.236-0.806-1.686-1.662-1.058-2.953c1.206-2.482,0.455-4.308-1.217-6.45
		c-5.184-6.646-7.134-14.573-7.882-22.789c-0.354-3.896-0.511-7.868-0.182-11.757c0.703-8.303,4.953-12.985,13.099-14.896
		c5.006-1.174,10.05-1.126,15.027,0.201c7.176,1.915,11.262,6.71,12.048,14.126C70.152,26.002,70.144,28.351,70.25,30.688z"/>
	<path fill-rule="evenodd" clip-rule="evenodd" d="M0.644,90.979c-0.049-3.117,1.457-5.437,3.342-7.552
		c4.434-4.97,10.246-7.923,16.096-10.771c2.576-1.253,5.299-2.199,7.913-3.378c1.128-0.51,1.848-0.383,2.758,0.536
		c11.008,11.124,26.904,11.138,38.019,0.146c0.51-0.503,1.659-0.916,2.252-0.69c7.29,2.771,14.409,5.942,20.572,10.817
		c2.046,1.618,3.875,3.622,5.413,5.732c1.051,1.44,1.423,3.371,2.211,5.368C66.018,91.117,33.372,91.047,0.644,90.979z"/>
</g>
</svg>
