<?xml version="1.0" encoding="utf-8"?>
<!-- Generator: Adobe Illustrator 16.0.0, SVG Export Plug-In . SVG Version: 6.00 Build 0)  -->
<!DOCTYPE svg PUBLIC "-//W3C//DTD SVG 1.1//EN" "http://www.w3.org/Graphics/SVG/1.1/DTD/svg11.dtd">
<svg version="1.1" id="Layer_1" xmlns="http://www.w3.org/2000/svg" xmlns:xlink="http://www.w3.org/1999/xlink" x="0px" y="0px"
	 width="100px" height="100px" viewBox="0 0 100 100" enable-background="new 0 0 100 100" xml:space="preserve">
<g>
	<path fill="#FFFFFF" d="M28.646,55.591c-0.802-2.521-0.988-5.812-0.532-8.789c2.211-14.429,17.285-22.861,30.672-17.134
		c0.604,0.259,0.936,0.212,1.398-0.255c4.973-5.011,9.972-9.996,14.963-14.988c0.201-0.2,0.385-0.415,0.566-0.609
		c-0.046-0.076-0.054-0.108-0.074-0.123c-5.448-3.895-11.48-6.384-18.076-7.536c-0.528-0.092-0.714,0.116-0.911,0.519
		c-0.955,1.944-1.951,3.869-2.883,5.825c-0.255,0.535-0.558,0.665-1.129,0.649c-1.76-0.047-3.524-0.043-5.286,0.007
		c-0.54,0.015-0.823-0.109-1.062-0.61c-0.908-1.903-1.894-3.769-2.787-5.678c-0.292-0.624-0.579-0.829-1.295-0.698
		c-6.401,1.184-12.288,3.587-17.644,7.296c-0.437,0.301-0.528,0.562-0.358,1.052c0.728,2.099,1.41,4.214,2.134,6.314
		c0.152,0.441,0.088,0.708-0.264,1.046c-1.376,1.32-2.725,2.668-4.036,4.05c-0.379,0.4-0.672,0.482-1.186,0.296
		c-1.547-0.559-3.116-1.053-4.676-1.575c-2.217-0.742-2.227-0.75-3.511,1.236C9.477,30.822,7.394,36.2,6.303,41.973
		c-0.117,0.621-0.022,0.975,0.617,1.273c1.937,0.903,3.825,1.912,5.75,2.841c0.464,0.224,0.591,0.485,0.582,0.992
		c-0.038,1.907-0.037,3.814,0.009,5.719c0.013,0.521-0.143,0.765-0.595,0.982c-1.898,0.92-3.762,1.913-5.673,2.801
		c-0.685,0.318-0.886,0.703-0.688,1.389c0.809,2.799,1.475,5.647,2.449,8.386c1.223,3.44,3.04,6.601,5.224,9.589
		c2.33-0.775,4.629-1.526,6.917-2.313c0.481-0.166,0.754-0.087,1.113,0.29c1.295,1.358,2.621,2.689,3.992,3.973
		c0.438,0.408,0.485,0.726,0.299,1.26c-0.714,2.041-1.371,4.104-2.067,6.154c-0.145,0.428-0.15,0.716,0.281,1.016
		c5.377,3.727,11.276,6.179,17.71,7.359c0.625,0.115,0.964,0.001,1.257-0.623c0.907-1.935,1.911-3.824,2.844-5.747
		c0.22-0.453,0.469-0.607,0.985-0.596c1.791,0.043,3.584,0.061,5.373-0.004c0.61-0.021,0.863,0.194,1.103,0.69
		c0.933,1.925,1.912,3.823,2.846,5.746c0.23,0.475,0.445,0.674,1.038,0.568c6.505-1.147,12.461-3.602,17.895-7.354
		c0.44-0.304,0.43-0.579,0.286-1.003c-0.719-2.104-1.407-4.216-2.131-6.316c-0.15-0.438-0.095-0.705,0.26-1.047
		c1.396-1.34,2.759-2.717,4.092-4.116c0.335-0.354,0.604-0.421,1.045-0.27c1.883,0.647,3.777,1.264,5.666,1.894
		c1.3,0.434,1.304,0.438,2.082-0.718c3.477-5.149,5.743-10.79,6.897-16.89c0.118-0.625,0.015-0.975-0.618-1.272
		c-1.937-0.906-3.825-1.911-5.75-2.843c-0.456-0.221-0.6-0.469-0.588-0.986c0.044-1.906,0.04-3.814-0.002-5.72
		c-0.012-0.512,0.126-0.767,0.585-0.989c1.899-0.917,3.764-1.91,5.674-2.801c0.679-0.316,0.838-0.686,0.702-1.387
		c-1.127-5.827-3.244-11.252-6.493-16.225c-0.327-0.499-0.674-0.982-1.017-1.481c-0.146,0.1-0.225,0.138-0.285,0.198
		c-5.198,5.194-10.389,10.395-15.603,15.575c-0.396,0.393-0.241,0.676-0.077,1.054c1.504,3.454,2.132,7.045,1.829,10.82
		c-0.927,11.504-10.86,20.565-22.406,20.32c-1.784-0.036-3.562-0.371-5.342-0.569c-0.025-0.117-0.049-0.234-0.074-0.35
		c0.243-0.203,0.502-0.387,0.724-0.608c3.728-3.72,7.444-7.451,11.183-11.159c0.406-0.402,0.5-0.728,0.301-1.278
		c-1.228-3.393-2.398-6.808-3.636-10.198c-0.133-0.364-0.524-0.761-0.886-0.895c-3.362-1.231-6.75-2.39-10.114-3.614
		c-0.608-0.221-0.975-0.138-1.429,0.321c-3.663,3.702-7.354,7.376-11.037,11.057C29.179,55.09,28.948,55.301,28.646,55.591z"/>
	<path fill-rule="evenodd" clip-rule="evenodd" fill="#FFFFFF" d="M28.646,55.591c0.302-0.29,0.533-0.501,0.754-0.723
		c3.684-3.681,7.374-7.355,11.037-11.057c0.454-0.459,0.821-0.542,1.429-0.321c3.364,1.224,6.752,2.383,10.114,3.614
		c0.361,0.133,0.753,0.53,0.886,0.895c1.237,3.39,2.408,6.805,3.636,10.198c0.199,0.551,0.105,0.876-0.301,1.278
		c-3.738,3.708-7.455,7.439-11.183,11.159c-0.222,0.222-0.481,0.405-0.724,0.608c0.025,0.115,0.049,0.232,0.074,0.35
		c1.781,0.198,3.559,0.533,5.342,0.569c11.546,0.245,21.479-8.816,22.406-20.32c0.303-3.774-0.325-7.366-1.829-10.82
		c-0.164-0.378-0.318-0.662,0.077-1.054c5.214-5.18,10.404-10.381,15.603-15.575c0.061-0.06,0.14-0.098,0.285-0.198
		c0.343,0.499,0.689,0.982,1.017,1.481c3.249,4.973,5.366,10.398,6.493,16.225c0.136,0.702-0.023,1.071-0.702,1.387
		c-1.91,0.891-3.774,1.884-5.674,2.801c-0.459,0.222-0.597,0.477-0.585,0.989c0.042,1.906,0.046,3.813,0.002,5.72
		c-0.012,0.518,0.132,0.766,0.588,0.986c1.925,0.932,3.813,1.937,5.75,2.843c0.633,0.298,0.736,0.647,0.618,1.272
		c-1.154,6.1-3.421,11.74-6.897,16.89c-0.778,1.155-0.782,1.151-2.082,0.718c-1.889-0.63-3.783-1.246-5.666-1.894
		c-0.44-0.151-0.71-0.084-1.045,0.27c-1.333,1.399-2.696,2.776-4.092,4.116c-0.354,0.342-0.41,0.608-0.26,1.047
		c0.724,2.101,1.412,4.213,2.131,6.316c0.144,0.424,0.154,0.699-0.286,1.003c-5.434,3.753-11.39,6.207-17.895,7.354
		c-0.593,0.105-0.808-0.094-1.038-0.568c-0.934-1.923-1.913-3.821-2.846-5.746c-0.239-0.496-0.492-0.712-1.103-0.69
		c-1.789,0.064-3.582,0.047-5.373,0.004c-0.516-0.012-0.765,0.143-0.985,0.596c-0.933,1.923-1.937,3.812-2.844,5.747
		c-0.293,0.624-0.632,0.738-1.257,0.623c-6.434-1.181-12.333-3.633-17.71-7.359c-0.431-0.3-0.426-0.588-0.281-1.016
		c0.696-2.05,1.353-4.113,2.067-6.154c0.187-0.534,0.139-0.852-0.299-1.26c-1.371-1.283-2.697-2.614-3.992-3.973
		c-0.358-0.377-0.631-0.456-1.113-0.29c-2.287,0.787-4.587,1.538-6.917,2.313c-2.184-2.988-4-6.148-5.224-9.589
		c-0.974-2.738-1.64-5.587-2.449-8.386c-0.198-0.686,0.003-1.07,0.688-1.389c1.912-0.888,3.775-1.881,5.673-2.801
		c0.452-0.218,0.608-0.462,0.595-0.982c-0.046-1.905-0.047-3.812-0.009-5.719c0.009-0.507-0.118-0.768-0.582-0.992
		c-1.925-0.93-3.813-1.938-5.75-2.841c-0.64-0.298-0.734-0.652-0.617-1.273c1.09-5.773,3.173-11.151,6.367-16.089
		c1.285-1.985,1.294-1.978,3.511-1.236c1.56,0.522,3.129,1.017,4.676,1.575c0.514,0.186,0.807,0.104,1.186-0.296
		c1.311-1.381,2.66-2.73,4.036-4.05c0.352-0.338,0.416-0.604,0.264-1.046c-0.724-2.1-1.407-4.215-2.134-6.314
		c-0.169-0.489-0.078-0.75,0.358-1.052C29.924,9.757,35.81,7.354,42.211,6.17c0.716-0.131,1.003,0.074,1.295,0.698
		c0.893,1.909,1.879,3.775,2.787,5.678c0.239,0.501,0.522,0.625,1.062,0.61c1.762-0.05,3.525-0.054,5.286-0.007
		c0.571,0.016,0.874-0.114,1.129-0.649c0.932-1.957,1.928-3.881,2.883-5.825c0.197-0.403,0.383-0.61,0.911-0.519
		c6.596,1.152,12.628,3.641,18.076,7.536c0.021,0.015,0.028,0.047,0.074,0.123c-0.182,0.194-0.365,0.409-0.566,0.609
		c-4.991,4.993-9.99,9.977-14.963,14.988c-0.463,0.467-0.794,0.514-1.398,0.255c-13.387-5.727-28.461,2.705-30.672,17.134
		C27.658,49.779,27.844,53.069,28.646,55.591z"/>
</g>
</svg>
