<?xml version="1.0" encoding="utf-8"?>
<!-- Generator: Adobe Illustrator 16.0.0, SVG Export Plug-In . SVG Version: 6.00 Build 0)  -->
<!DOCTYPE svg PUBLIC "-//W3C//DTD SVG 1.1//EN" "http://www.w3.org/Graphics/SVG/1.1/DTD/svg11.dtd">
<svg version="1.1" id="Layer_1" xmlns="http://www.w3.org/2000/svg" xmlns:xlink="http://www.w3.org/1999/xlink" x="0px" y="0px"
	 width="170px" height="200px" viewBox="0 0 170 200" enable-background="new 0 0 170 200" xml:space="preserve">
<g>
	<g>
		<text transform="matrix(1 0.0012 -0.0012 1 53.4136 165.9287)" font-family="'Futura-Light'" font-size="5.9982">Study With </text>
		<g>
			<path fill-rule="evenodd" clip-rule="evenodd" fill="#3C5867" d="M52.887,155.174c-5.992-2.223-11.988-4.436-17.976-6.668
				c-0.701-0.264-1.513-0.314-1.479-1.506c0.034-1.129,0.843-1.123,1.467-1.35c16.305-5.969,32.619-11.91,48.923-17.887
				c0.853-0.311,1.57-0.311,2.416,0c16.333,6.035,32.676,12.041,49.012,18.057c0.619,0.229,1.283,0.297,1.316,1.312
				c0.039,1.086-0.657,1.207-1.337,1.455c-6.052,2.225-12.097,4.441-18.146,6.66c-1.255,1.133-2.774,1.578-4.423,1.682
				c-0.289-0.117-0.509-0.328-0.739-0.531c-6.015-2.547-12.129-4.838-18.183-7.281c-2.253-0.914-4.634-1.545-6.693-2.908
				c-0.631-1.41-1.589-1.961-2.737-1.529c-0.574,0.221-1.109,0.549-1.117,1.244c-0.007,0.637,0.489,0.93,1.018,1.141
				c0.229,0.092,0.479,0.125,0.716,0.201c7.729,3.051,15.513,5.938,23.271,8.914c0.737,0.277,1.539,0.455,2.071,1.119
				c0.095,0.238,0.079,0.463-0.041,0.688c-1.945,1.148-4.146,1.678-6.235,2.457c-5.781,2.168-11.621,4.189-17.396,6.385
				c-1.033,0.395-1.984,0.406-3.038,0.023c-9.644-3.518-19.258-7.104-28.905-10.621C53.999,155.994,53.325,155.777,52.887,155.174z"
				/>
			<path fill-rule="evenodd" clip-rule="evenodd" fill="#3B5361" d="M84.954,188.4c-10.971-0.102-21.101-2.791-29.778-9.803
				c-2.784-2.25-4.262-4.998-3.581-8.877c0.635-3.604,0.522-7.328,1.08-10.973c0.744-0.555,1.45-0.109,2.119,0.141
				c7.422,2.771,14.872,5.475,22.31,8.201c2.058,0.754,4.129,1.48,6.162,2.301c0.694,0.281,1.405,0.541,1.814,1.242
				c0.38,1.158,0.375,2.359,0.383,3.549c0.024,4.035,0.009,8.07-0.01,12.1C85.445,187.02,85.542,187.797,84.954,188.4z"/>
			<path fill-rule="evenodd" clip-rule="evenodd" fill="#324C5A" d="M84.954,188.4c0.003-4.814,0.027-9.635-0.001-14.451
				c-0.004-1.158-0.182-2.314-0.282-3.473c0.325-0.586,0.942-0.695,1.496-0.896c7.146-2.617,14.297-5.217,21.464-7.797
				c0.844-0.305,1.713-0.922,2.67-0.23c0.335,0.537,0.299,1.141,0.302,1.732c0.005,2.285-0.021,4.562,0.005,6.85
				c0.008,1.102-0.296,1.988-1.119,2.783c-1.621,1.574-1.646,2.799-0.269,4.555c1.293,1.645,1.012,3.959-0.646,5.352
				c-6.6,3.277-13.589,5.098-20.93,5.561C86.752,188.441,85.85,188.398,84.954,188.4z"/>
			<path fill-rule="evenodd" clip-rule="evenodd" fill="#2C4350" d="M110.096,161.516c-3.281,0.836-6.385,2.172-9.566,3.301
				c-5.287,1.881-10.571,3.773-15.859,5.66c-3.75-1.723-7.698-2.938-11.545-4.4c-6.079-2.311-12.201-4.504-18.313-6.729
				c-0.694-0.254-1.425-0.402-2.138-0.6c0.043-1.193-0.302-2.41,0.213-3.574c5.137,1.869,10.279,3.723,15.411,5.605
				c5.371,1.971,10.732,3.961,16.092,5.957c0.861,0.32,1.548-0.143,2.278-0.41c7.521-2.74,15.04-5.49,22.563-8.232
				c0.273-0.1,0.575-0.111,0.869-0.166C110.908,159.125,110.911,160.324,110.096,161.516z"/>
			<path fill-rule="evenodd" clip-rule="evenodd" fill="#EEC74A" d="M110.096,161.516c0.002-1.195,0.002-2.395,0.005-3.588
				c0.01-0.193,0.018-0.389,0.021-0.582c0.447-0.844,1.122-1.285,2.102-1.211c0.36,0.053,0.289,0.369,0.376,0.594
				c0.519,0.639,0.419,1.408,0.422,2.145c0.008,3.588,0.01,7.178-0.021,10.76c-0.013,1.1,0.248,1.994,1.041,2.828
				c1.769,1.861,1.751,3.826,0.007,5.688c-0.618,0.664-1.155,1.357-1.493,2.201c-0.056,2.283,0.693,4.449,1.049,6.855
				c-1.844-0.727-3.569-1.41-5.292-2.08c-0.52-0.201-0.467-0.514-0.273-0.928c0.212-0.443,0.361-0.916,0.534-1.373
				c0.236-0.65,0.455-1.307,0.701-1.949c0.471-1.24,0.676-2.227-0.625-3.328c-1.564-1.324-1.238-3.811,0.516-5.037
				c0.831-0.578,1.003-1.172,0.99-2.059C110.105,167.473,110.11,164.496,110.096,161.516z"/>
			<path fill-rule="evenodd" clip-rule="evenodd" fill="#324B59" d="M112.555,180.35c-0.158-0.918-0.084-1.58,0.877-2.225
				c2.069-1.391,2.036-4.201-0.027-5.682c-0.731-0.523-0.893-1.027-0.883-1.82c0.046-4.631,0.054-9.262,0.077-13.895
				c1.493-0.496,2.991-0.99,4.484-1.48c0.463,5.707,0.946,11.406,1.381,17.113c0.103,1.354-0.524,2.523-1.275,3.59
				C115.933,177.721,114.35,179.145,112.555,180.35z"/>
			<path fill-rule="evenodd" clip-rule="evenodd" fill="#EDCC60" d="M112.223,156.135c-0.7,0.404-1.401,0.809-2.102,1.211
				c-8.114-3.09-16.23-6.176-24.345-9.264c-0.414-0.16-0.864-0.248-1.14-0.65c-0.35-0.885,0.039-1.646,0.688-2.076
				c0.631-0.422,1.328-0.084,1.75,0.602c7.947,3.176,15.894,6.352,23.839,9.531C111.363,155.67,111.885,155.725,112.223,156.135z"/>
			<path fill-rule="evenodd" clip-rule="evenodd" fill="#2E4451" d="M87.074,145.957c-1.683-0.955-2.097,0.201-2.438,1.475
				c-1.13,0.271-1.694-0.486-1.957-1.324c-0.271-0.859,0.511-1.32,1.15-1.689c0.842-0.494,1.746-0.461,2.514,0.109
				C86.766,144.84,87.638,145.076,87.074,145.957z"/>
		</g>
	</g>
	<g>
		<path fill-rule="evenodd" clip-rule="evenodd" fill="#E54D3C" d="M85.454,119.484c-2.437-6.359-4.644-12.105-6.842-17.859
			c-6.675-17.459-13.459-34.886-19.979-52.407c-4.048-10.884-2.116-20.991,5.774-29.477c7.919-8.512,17.896-11.517,29.125-8.134
			c11.124,3.348,17.571,11.236,19.778,22.626c0.852,4.381,0.232,8.591-1.278,12.721c-7.458,20.393-14.919,40.788-22.382,61.18
			C88.338,111.707,87.01,115.273,85.454,119.484z"/>
		<path fill-rule="evenodd" clip-rule="evenodd" fill="#FFFFFF" d="M103.62,39.994c-0.01,10.256-8.455,18.681-18.674,18.629
			c-10.232-0.054-18.7-8.542-18.662-18.711c0.039-10.223,8.5-18.62,18.742-18.598C95.311,21.336,103.634,29.699,103.62,39.994z"/>
	</g>
</g>
</svg>
